<?xml version="1.0" encoding="UTF-8" standalone="no"?>
<!-- Created with Inkscape (http://www.inkscape.org/) -->

<svg
   xmlns:dc="http://purl.org/dc/elements/1.1/"
   xmlns:cc="http://creativecommons.org/ns#"
   xmlns:rdf="http://www.w3.org/1999/02/22-rdf-syntax-ns#"
   xmlns:svg="http://www.w3.org/2000/svg"
   xmlns="http://www.w3.org/2000/svg"
   version="1.1"
   width="100%"
   height="100%"
   viewBox="0 0 1024 768"
   id="svg2"
   style="fill:none;stroke:none">
  <metadata
     id="metadata100">
    <rdf:RDF>
      <cc:Work
         rdf:about="">
        <dc:format>image/svg+xml</dc:format>
        <dc:type
           rdf:resource="http://purl.org/dc/dcmitype/StillImage" />
        <dc:title></dc:title>
      </cc:Work>
    </rdf:RDF>
  </metadata>
  <defs
     id="defs98" />
  <path
     d="M 263.84354,7.9269886 264.00104,647.99"
     id="path4"
     style="stroke:#073763;stroke-width:2;stroke-linecap:butt;stroke-linejoin:round" />
  <path
     d="M 487.8644,7.9374185 487.99042,648.0004"
     id="path6"
     style="stroke:#073763;stroke-width:2;stroke-linecap:butt;stroke-linejoin:round" />
  <path
     d="m 151.15605,25.661364 1.79688,0.453125 q -0.5625,2.21875 -2.03125,3.382812 -1.46875,1.164063 -3.59375,1.164063 -2.20313,0 -3.57813,-0.898438 -1.375,-0.898437 -2.09375,-2.59375 -0.71875,-1.695312 -0.71875,-3.648437 0,-2.125 0.80469,-3.703125 0.80469,-1.578125 2.30469,-2.398438 1.5,-0.820312 3.29687,-0.820312 2.04688,0 3.4375,1.039062 1.39063,1.039063 1.9375,2.914063 l -1.76562,0.421875 q -0.46875,-1.484375 -1.375,-2.164063 -0.90625,-0.679687 -2.26563,-0.679687 -1.5625,0 -2.61719,0.75 -1.05468,0.75 -1.48437,2.023437 -0.42969,1.273438 -0.42969,2.617188 0,1.734375 0.50781,3.023437 0.50782,1.289063 1.57813,1.929688 1.07031,0.640625 2.30469,0.640625 1.51562,0 2.5625,-0.867188 1.04687,-0.867187 1.42187,-2.585937 z m 3.51563,4.765625 0,-13.59375 1.67187,0 0,13.59375 -1.67187,0 z m 4.20312,-11.6875 0,-1.90625 1.67188,0 0,1.90625 -1.67188,0 z m 0,11.6875 0,-9.859375 1.67188,0 0,9.859375 -1.67188,0 z m 10.875,-3.171875 1.71875,0.21875 q -0.40625,1.5 -1.50781,2.335937 -1.10156,0.835938 -2.82031,0.835938 -2.15625,0 -3.42188,-1.328125 -1.26562,-1.328125 -1.26562,-3.734375 0,-2.484375 1.27343,-3.859375 1.27344,-1.375 3.32032,-1.375 1.98437,0 3.23437,1.34375 1.25,1.34375 1.25,3.796875 0,0.140625 -0.0156,0.4375 l -7.34375,0 q 0.0937,1.625 0.92187,2.484375 0.82813,0.859375 2.0625,0.859375 0.90625,0 1.55469,-0.476563 0.64844,-0.476562 1.03906,-1.539062 z m -5.48437,-2.703125 5.5,0 q -0.10938,-1.234375 -0.625,-1.859375 -0.79688,-0.96875 -2.07813,-0.96875 -1.14062,0 -1.92969,0.773437 -0.78906,0.773438 -0.86718,2.054688 z m 9.10937,5.875 0,-9.859375 1.5,0 0,1.40625 q 1.09375,-1.625 3.14063,-1.625 0.89062,0 1.64062,0.320312 0.75,0.320313 1.11719,0.84375 0.36719,0.523438 0.52344,1.226563 0.0937,0.46875 0.0937,1.625 l 0,6.0625 -1.67188,0 0,-6 q 0,-1.015625 -0.19531,-1.523438 -0.19531,-0.507812 -0.69531,-0.804687 -0.5,-0.296875 -1.17188,-0.296875 -1.0625,0 -1.83594,0.671875 -0.77343,0.671875 -0.77343,2.578125 l 0,5.375 -1.67188,0 z m 14.03125,-1.5 0.23438,1.484375 q -0.70313,0.140625 -1.26563,0.140625 -0.90625,0 -1.40625,-0.289063 -0.5,-0.289062 -0.70312,-0.75 -0.20313,-0.460937 -0.20313,-1.976562 l 0,-5.65625 -1.23437,0 0,-1.3125 1.23437,0 0,-2.4375 1.65625,-1 0,3.4375 1.6875,0 0,1.3125 -1.6875,0 0,5.75 q 0,0.71875 0.0859,0.921875 0.0859,0.203125 0.28906,0.328125 0.20313,0.125 0.57813,0.125 0.26562,0 0.73437,-0.07813 z"
     id="path8"
     style="fill:#000000;fill-rule:nonzero" />
  <path
     d="m 577.23944,30.06242 1.6875,-0.140625 q 0.125,1.015625 0.5625,1.671875 0.4375,0.65625 1.36716,1.0625 0.9297,0.40625 2.08597,0.40625 1.03123,0 1.82033,-0.3125 0.78904,-0.3125 1.17967,-0.84375 0.39063,-0.53125 0.39063,-1.15625 0,-0.640625 -0.375,-1.117188 -0.375,-0.476562 -1.2344,-0.804687 -0.54686,-0.21875 -2.42186,-0.664063 -1.875,-0.445312 -2.625,-0.851562 -0.96874,-0.515625 -1.44534,-1.265625 -0.47653,-0.75 -0.47653,-1.6875 0,-1.03125 0.58593,-1.929688 0.58594,-0.898437 1.7031,-1.359375 1.1172,-0.460937 2.4922,-0.460937 1.51564,0 2.6719,0.484375 1.15624,0.484375 1.7734,1.429687 0.6172,0.945313 0.6641,2.148438 l -1.71876,0.125 q -0.14064,-1.28125 -0.94534,-1.945313 -0.80466,-0.664062 -2.36716,-0.664062 -1.625,0 -2.375,0.601562 -0.75,0.601563 -0.75,1.445313 0,0.734375 0.53126,1.203125 0.5156,0.46875 2.7109,0.96875 2.19534,0.5 3.00784,0.875 1.1875,0.546875 1.75781,1.382812 0.57032,0.835938 0.57032,1.929688 0,1.09375 -0.625,2.054687 -0.625,0.960938 -1.78907,1.492188 -1.16406,0.53125 -2.6172,0.53125 -1.84373,0 -3.09373,-0.539063 -1.25,-0.539062 -1.96097,-1.617187 -0.7109,-1.078125 -0.74216,-2.453125 z m 19.59376,1.203125 1.71874,0.21875 q -0.40624,1.5 -1.50784,2.335937 -1.10153,0.835938 -2.8203,0.835938 -2.15623,0 -3.42186,-1.328125 -1.26564,-1.328125 -1.26564,-3.734375 0,-2.484375 1.27345,-3.859375 1.27345,-1.375 3.32032,-1.375 1.98437,0 3.23437,1.34375 1.25,1.34375 1.25,3.796875 0,0.140625 -0.0156,0.4375 l -7.34373,0 q 0.0937,1.625 0.92187,2.484375 0.82813,0.859375 2.0625,0.859375 0.90626,0 1.55466,-0.476563 0.64847,-0.476562 1.0391,-1.539062 z m -5.4844,-2.703125 5.5,0 q -0.10936,-1.234375 -0.625,-1.859375 -0.79686,-0.96875 -2.0781,-0.96875 -1.14063,0 -1.9297,0.773437 -0.78906,0.773438 -0.8672,2.054688 z m 9.09377,5.875 0,-9.859375 1.5,0 0,1.5 q 0.57813,-1.046875 1.0625,-1.382813 0.48437,-0.335937 1.07813,-0.335937 0.84374,0 1.71874,0.546875 l -0.57814,1.546875 q -0.60936,-0.359375 -1.23436,-0.359375 -0.54687,0 -0.97654,0.328125 -0.4297,0.328125 -0.6172,0.90625 -0.28126,0.890625 -0.28126,1.953125 l 0,5.15625 -1.67187,0 z m 8.95313,0 -3.75,-9.859375 1.7656,0 2.125,5.90625 q 0.34377,0.953125 0.625,1.984375 0.21877,-0.78125 0.625,-1.875 l 2.1875,-6.015625 1.71877,0 -3.73437,9.859375 -1.5625,0 z m 13.34374,-3.171875 1.71876,0.21875 q -0.40626,1.5 -1.5078,2.335937 -1.1016,0.835938 -2.82033,0.835938 -2.15627,0 -3.42187,-1.328125 -1.26563,-1.328125 -1.26563,-3.734375 0,-2.484375 1.27343,-3.859375 1.27344,-1.375 3.3203,-1.375 1.9844,0 3.2344,1.34375 1.25,1.34375 1.25,3.796875 0,0.140625 -0.0156,0.4375 l -7.34377,0 q 0.0938,1.625 0.9219,2.484375 0.8281,0.859375 2.0625,0.859375 0.90624,0 1.5547,-0.476563 0.6484,-0.476562 1.03904,-1.539062 z m -5.48437,-2.703125 5.5,0 q -0.10937,-1.234375 -0.625,-1.859375 -0.79687,-0.96875 -2.07813,-0.96875 -1.14064,0 -1.92969,0.773437 -0.78905,0.773438 -0.86718,2.054688 z m 9.09373,5.875 0,-9.859375 1.5,0 0,1.5 q 0.57814,-1.046875 1.0625,-1.382813 0.4844,-0.335937 1.07814,-0.335937 0.84376,0 1.71876,0.546875 l -0.57813,1.546875 q -0.60937,-0.359375 -1.23437,-0.359375 -0.5469,0 -0.9766,0.328125 -0.42966,0.328125 -0.61716,0.90625 -0.28124,0.890625 -0.28124,1.953125 l 0,5.15625 -1.6719,0 z"
     id="path10"
     style="fill:#000000;fill-rule:nonzero" />
  <path
     d="m 48.125164,143.53064 183.779536,0 0,32.25197 -183.779536,0 z"
     id="path12"
     style="fill:#cfe2f3;fill-rule:nonzero;stroke:#073763;stroke-width:2;stroke-linecap:butt;stroke-linejoin:round" />
  <path
     d="m 133.75029,164.80145 q -0.9375,0.79688 -1.79688,1.11719 -0.85937,0.32031 -1.84375,0.32031 -1.60937,0 -2.48437,-0.78906 -0.875,-0.78906 -0.875,-2.02344 0,-0.73437 0.32813,-1.32812 0.32812,-0.59375 0.85937,-0.95313 0.53125,-0.35937 1.20312,-0.54687 0.5,-0.14063 1.48438,-0.25 2.03125,-0.25 2.98437,-0.57813 0,-0.34375 0,-0.4375 0,-1.01562 -0.46875,-1.4375 -0.64062,-0.5625 -1.90625,-0.5625 -1.17187,0 -1.73437,0.40625 -0.5625,0.40625 -0.82813,1.46875 l -1.64062,-0.23437 q 0.23438,-1.04688 0.74219,-1.6875 0.50781,-0.64063 1.46875,-0.99219 0.96093,-0.35156 2.24218,-0.35156 1.26563,0 2.04688,0.29687 0.78125,0.29688 1.15625,0.75 0.375,0.45313 0.51562,1.14063 0.0937,0.42187 0.0937,1.53125 l 0,2.23437 q 0,2.32813 0.10157,2.94532 0.10156,0.61718 0.42968,1.17968 l -1.75,0 q -0.26562,-0.51562 -0.32812,-1.21875 z m -0.14063,-3.71875 q -0.90625,0.35938 -2.73437,0.625 -1.03125,0.14063 -1.45313,0.32813 -0.42187,0.1875 -0.65625,0.54687 -0.23437,0.35938 -0.23437,0.79688 0,0.67187 0.50781,1.11719 0.50781,0.44531 1.47656,0.44531 0.96875,0 1.71875,-0.42969 0.75,-0.42969 1.10938,-1.14844 0.26562,-0.57812 0.26562,-1.67187 l 0,-0.60938 z m 10.53125,4.9375 0,-1.45312 q -1.14062,1.67187 -3.125,1.67187 -0.85937,0 -1.61718,-0.33593 -0.75782,-0.33594 -1.125,-0.83594 -0.36719,-0.5 -0.52344,-1.23438 -0.0937,-0.5 -0.0937,-1.5625 l 0,-6.10937 1.67187,0 0,5.46875 q 0,1.3125 0.0937,1.76562 0.15625,0.65625 0.67188,1.03125 0.51562,0.375 1.26562,0.375 0.75,0 1.40625,-0.38281 0.65625,-0.38281 0.92969,-1.04687 0.27344,-0.66407 0.27344,-1.92969 l 0,-5.28125 1.67187,0 0,9.85937 -1.5,0 z m 7.57813,-1.5 0.23437,1.48438 q -0.70312,0.14062 -1.26562,0.14062 -0.90625,0 -1.40625,-0.28906 -0.5,-0.28906 -0.70313,-0.75 -0.20312,-0.46094 -0.20312,-1.97656 l 0,-5.65625 -1.23438,0 0,-1.3125 1.23438,0 0,-2.4375 1.65625,-1 0,3.4375 1.6875,0 0,1.3125 -1.6875,0 0,5.75 q 0,0.71875 0.0859,0.92187 0.0859,0.20313 0.28906,0.32813 0.20312,0.125 0.57812,0.125 0.26563,0 0.73438,-0.0781 z m 1.51562,1.5 0,-13.59375 1.67188,0 0,4.875 q 1.17187,-1.35937 2.95312,-1.35937 1.09375,0 1.89844,0.42969 0.80469,0.42968 1.15625,1.19531 0.35156,0.76562 0.35156,2.20312 l 0,6.25 -1.67187,0 0,-6.25 q 0,-1.25 -0.54688,-1.82031 -0.54687,-0.57031 -1.53125,-0.57031 -0.75,0 -1.39843,0.38281 -0.64844,0.38281 -0.92969,1.04688 -0.28125,0.66406 -0.28125,1.82031 l 0,5.39062 -1.67188,0 z"
     id="path14"
     style="fill:#000000;fill-rule:nonzero" />
  <path
     d="m 48.177315,48.125164 183.779535,0 0,32.251966 -183.779535,0 z"
     id="path16"
     style="fill:#cfe2f3;fill-rule:nonzero;stroke:#073763;stroke-width:2;stroke-linecap:butt;stroke-linejoin:round" />
  <path
     d="m 131.00557,58.92723 0,-1.90625 1.67187,0 0,1.90625 -1.67187,0 z m 0,11.6875 0,-9.859374 1.67187,0 0,9.859374 -1.67187,0 z m 10.51563,0 0,-1.25 q -0.9375,1.46875 -2.75,1.46875 -1.17188,0 -2.16407,-0.64844 -0.99219,-0.648434 -1.53125,-1.8125 -0.53906,-1.16406 -0.53906,-2.679684 0,-1.46875 0.49218,-2.671876 0.4922,-1.203124 1.46876,-1.84375 0.97656,-0.640624 2.19531,-0.640624 0.89063,0 1.58593,0.375 0.69532,0.375 1.13282,0.984374 l 0,-4.875 1.65625,0 0,13.59375 -1.54687,0 z m -5.28126,-4.921874 q 0,1.890624 0.80469,2.828124 0.80469,0.9375 1.88281,0.9375 1.09376,0 1.85938,-0.890624 0.76562,-0.890626 0.76562,-2.734376 0,-2.015624 -0.78124,-2.960937 -0.78126,-0.945313 -1.92188,-0.945313 -1.10938,0 -1.85938,0.90625 -0.75,0.90625 -0.75,2.859376 z m 9.25,4.921874 0,-13.59375 1.67188,0 0,13.59375 -1.67188,0 z m 10.92188,-3.171874 1.71875,0.21875 q -0.40625,1.5 -1.50781,2.335934 -1.10156,0.83594 -2.82032,0.83594 -2.15624,0 -3.42187,-1.328124 -1.26563,-1.328126 -1.26563,-3.734376 0,-2.484374 1.27344,-3.859374 1.27344,-1.375 3.32032,-1.375 1.98437,0 3.23437,1.34375 1.25,1.34375 1.25,3.796874 0,0.140626 -0.0156,0.4375 l -7.34374,0 q 0.0937,1.625 0.92187,2.484376 0.82813,0.859374 2.0625,0.859374 0.90625,0 1.55469,-0.47656 0.64844,-0.476564 1.03906,-1.539064 z m -5.48438,-2.703126 5.5,0 q -0.10937,-1.234374 -0.625,-1.859374 -0.79687,-0.96875 -2.07812,-0.96875 -1.14062,0 -1.92969,0.773437 -0.78906,0.773437 -0.86719,2.054687 z"
     id="path18"
     style="fill:#000000;fill-rule:nonzero" />
  <path
     d="m 264,96 204,0"
     id="path20"
     style="stroke:#073763;stroke-width:2;stroke-linecap:butt;stroke-linejoin:round" />
  <path
     d="M 468,99.30347 477.0762,96 468,92.69653 z"
     id="path22"
     style="fill:#073763;fill-rule:evenodd;stroke:#073763;stroke-width:2;stroke-linecap:butt" />
  <path
     d="m 488,120 -212,0"
     id="path24"
     style="stroke:#073763;stroke-width:2;stroke-linecap:butt;stroke-linejoin:round" />
  <path
     d="M 276,116.69653 266.9238,120 276,123.30347 z"
     id="path26"
     style="fill:#073763;fill-rule:evenodd;stroke:#073763;stroke-width:2;stroke-linecap:butt" />
  <path
     d="m 324.04688,90.890625 1.64062,0.21875 q -0.26562,1.6875 -1.375,2.648435 -1.10938,0.96094 -2.73438,0.96094 -2.01562,0 -3.24218,-1.32031 -1.22656,-1.320315 -1.22656,-3.789065 0,-1.59375 0.52342,-2.789065 0.52345,-1.19531 1.6094,-1.79687 1.08592,-0.601565 2.35155,-0.601565 1.60937,0 2.625,0.8125 1.01563,0.8125 1.3125,2.3125 l -1.625,0.25 q -0.23437,-1 -0.82813,-1.5 -0.59374,-0.5 -1.42187,-0.5 -1.26563,0 -2.05469,0.90625 -0.78906,0.90625 -0.78906,2.859375 0,1.984375 0.76562,2.88281 0.76563,0.89844 1.98438,0.89844 0.98438,0 1.64062,-0.60156 0.65626,-0.601565 0.84376,-1.851565 z m 2.85937,3.609375 0,-13.59375 1.67187,0 0,13.59375 -1.67187,0 z m 4.1875,-11.6875 0,-1.90625 1.67187,0 0,1.90625 -1.67187,0 z m 0,11.6875 0,-9.859375 1.67187,0 0,9.859375 -1.67187,0 z m 10.875,-3.171875 1.71875,0.21875 q -0.40625,1.5 -1.5078,2.335935 -1.10158,0.83594 -2.82032,0.83594 -2.15626,0 -3.42188,-1.328125 -1.26562,-1.328125 -1.26562,-3.734375 0,-2.484375 1.27342,-3.859375 1.27345,-1.375 3.32032,-1.375 1.98438,0 3.23438,1.34375 1.25,1.34375 1.25,3.796875 0,0.140625 -0.0156,0.4375 l -7.34376,0 q 0.0938,1.625 0.92188,2.484375 0.82812,0.859375 2.0625,0.859375 0.90625,0 1.5547,-0.47656 0.64842,-0.476565 1.03905,-1.539065 z m -5.48437,-2.703125 5.5,0 q -0.10938,-1.234375 -0.625,-1.859375 -0.79688,-0.96875 -2.07813,-0.96875 -1.14063,0 -1.92969,0.773435 -0.78906,0.77344 -0.86718,2.05469 z m 9.10937,5.875 0,-9.859375 1.5,0 0,1.40625 q 1.09375,-1.625 3.14063,-1.625 0.89062,0 1.64062,0.320315 0.75,0.32031 1.1172,0.84375 0.36718,0.523435 0.52342,1.22656 0.0938,0.46875 0.0938,1.625 l 0,6.0625 -1.67188,0 0,-6 q 0,-1.015625 -0.1953,-1.52344 -0.19532,-0.50781 -0.69532,-0.804685 -0.5,-0.296875 -1.17188,-0.296875 -1.0625,0 -1.83594,0.671875 -0.77344,0.671875 -0.77344,2.578125 l 0,5.375 -1.67187,0 z M 359.625,93 l 0.23438,1.484375 q -0.70313,0.140625 -1.26563,0.140625 -0.90625,0 -1.40625,-0.28906 -0.5,-0.289065 -0.70312,-0.75 -0.20313,-0.46094 -0.20313,-1.976565 l 0,-5.65625 -1.23437,0 0,-1.3125 1.23437,0 0,-2.4375 1.65625,-1 0,3.4375 1.6875,0 0,1.3125 -1.6875,0 0,5.75 q 0,0.71875 0.0859,0.921875 0.0859,0.203125 0.28906,0.328125 0.20312,0.125 0.57812,0.125 0.26563,0 0.73438,-0.07813 z m 0,5.28125 0,-1.21875 11.0625,0 0,1.21875 -11.0625,0 z m 18.34375,-7.390625 1.64063,0.21875 q -0.26563,1.6875 -1.375,2.648435 -1.10938,0.96094 -2.73438,0.96094 -2.01562,0 -3.2422,-1.32031 -1.22655,-1.320315 -1.22655,-3.789065 0,-1.59375 0.52345,-2.789065 0.52342,-1.19531 1.60936,-1.79687 1.08594,-0.601565 2.35156,-0.601565 1.60938,0 2.625,0.8125 1.01563,0.8125 1.3125,2.3125 l -1.625,0.25 q -0.23437,-1 -0.82812,-1.5 -0.59375,-0.5 -1.42188,-0.5 -1.26562,0 -2.05468,0.90625 -0.78906,0.90625 -0.78906,2.859375 0,1.984375 0.76562,2.88281 0.76562,0.89844 1.98438,0.89844 0.98437,0 1.64062,-0.60156 0.65625,-0.601565 0.84375,-1.851565 z m 2.26563,-1.3125 q 0,-2.734375 1.53124,-4.0625 1.26563,-1.09375 3.09376,-1.09375 2.03124,0 3.32032,1.335935 1.28905,1.33594 1.28905,3.67969 0,1.90625 -0.57031,2.99219 -0.57032,1.085935 -1.65624,1.6875 -1.08595,0.60156 -2.38282,0.60156 -2.0625,0 -3.34376,-1.328125 -1.28124,-1.328125 -1.28124,-3.8125 z m 1.71874,0 q 0,1.890625 0.82813,2.828125 0.82813,0.9375 2.07813,0.9375 1.25,0 2.07032,-0.94531 0.8203,-0.945315 0.8203,-2.882815 0,-1.828125 -0.82812,-2.765625 -0.82813,-0.9375 -2.0625,-0.9375 -1.25,0 -2.07813,0.9375 -0.82813,0.9375 -0.82813,2.828125 z m 9.28126,4.921875 0,-9.859375 1.5,0 0,1.40625 q 1.09374,-1.625 3.14062,-1.625 0.89062,0 1.64062,0.320315 0.75,0.32031 1.11718,0.84375 0.3672,0.523435 0.52345,1.22656 0.0937,0.46875 0.0937,1.625 l 0,6.0625 -1.67188,0 0,-6 q 0,-1.015625 -0.19532,-1.52344 -0.1953,-0.50781 -0.6953,-0.804685 -0.5,-0.296875 -1.17188,-0.296875 -1.0625,0 -1.83592,0.671875 -0.77345,0.671875 -0.77345,2.578125 l 0,5.375 -1.67187,0 z m 10.375,0 0,-9.859375 1.5,0 0,1.40625 q 1.09374,-1.625 3.14062,-1.625 0.89062,0 1.64062,0.320315 0.75,0.32031 1.11718,0.84375 0.3672,0.523435 0.52345,1.22656 0.0937,0.46875 0.0937,1.625 l 0,6.0625 -1.67188,0 0,-6 q 0,-1.015625 -0.19532,-1.52344 -0.1953,-0.50781 -0.6953,-0.804685 -0.5,-0.296875 -1.17188,-0.296875 -1.0625,0 -1.83592,0.671875 -0.77345,0.671875 -0.77345,2.578125 l 0,5.375 -1.67187,0 z m 17.125,-3.171875 1.71874,0.21875 q -0.40624,1.5 -1.50782,2.335935 -1.10155,0.83594 -2.8203,0.83594 -2.15625,0 -3.42188,-1.328125 -1.26562,-1.328125 -1.26562,-3.734375 0,-2.484375 1.27344,-3.859375 1.27344,-1.375 3.32031,-1.375 1.98437,0 3.23437,1.34375 1.25,1.34375 1.25,3.796875 0,0.140625 -0.0156,0.4375 l -7.34375,0 q 0.0937,1.625 0.92187,2.484375 0.82813,0.859375 2.0625,0.859375 0.90626,0 1.55468,-0.47656 0.64845,-0.476565 1.03908,-1.539065 z M 413.25,88.625 l 5.5,0 q -0.10938,-1.234375 -0.625,-1.859375 -0.79688,-0.96875 -2.07812,-0.96875 -1.14063,0 -1.92968,0.773435 -0.78908,0.77344 -0.8672,2.05469 z m 15.54688,2.265625 1.64062,0.21875 q -0.26562,1.6875 -1.375,2.648435 -1.10938,0.96094 -2.73438,0.96094 -2.01562,0 -3.24218,-1.32031 -1.22656,-1.320315 -1.22656,-3.789065 0,-1.59375 0.52342,-2.789065 0.52345,-1.19531 1.6094,-1.79687 1.08592,-0.601565 2.35155,-0.601565 1.60937,0 2.625,0.8125 1.01563,0.8125 1.3125,2.3125 l -1.625,0.25 q -0.23437,-1 -0.82813,-1.5 -0.59374,-0.5 -1.42187,-0.5 -1.26563,0 -2.05469,0.90625 -0.78906,0.90625 -0.78906,2.859375 0,1.984375 0.76562,2.88281 0.76563,0.89844 1.98438,0.89844 0.98438,0 1.64062,-0.60156 0.65626,-0.601565 0.84376,-1.851565 z M 435.34375,93 l 0.23437,1.484375 Q 434.875,94.625 434.3125,94.625 q -0.90625,0 -1.40625,-0.28906 -0.5,-0.289065 -0.70313,-0.75 Q 432,93.125 432,91.609375 l 0,-5.65625 -1.23438,0 0,-1.3125 1.23438,0 0,-2.4375 1.65625,-1 0,3.4375 1.6875,0 0,1.3125 -1.6875,0 0,5.75 q 0,0.71875 0.086,0.921875 0.0859,0.203125 0.28905,0.328125 0.20313,0.125 0.57813,0.125 0.26562,0 0.73437,-0.07813 z"
     id="path28"
     style="fill:#000000;fill-rule:nonzero" />
  <path
     d="m 312.99506,115.30174 1.65624,-0.26562 q 0.14063,1 0.77344,1.52344 0.63282,0.52343 1.77344,0.52343 1.15625,0 1.71094,-0.46875 0.55468,-0.46875 0.55468,-1.09375 0,-0.5625 -0.48437,-0.89062 -0.34375,-0.21875 -1.70313,-0.5625 -1.84374,-0.46875 -2.55468,-0.80469 -0.71094,-0.33594 -1.07812,-0.9375 -0.3672,-0.60156 -0.3672,-1.32031 0,-0.65625 0.3047,-1.21875 0.30468,-0.5625 0.8203,-0.9375 0.39063,-0.28125 1.0625,-0.48438 0.67188,-0.20312 1.4375,-0.20312 1.17188,0 2.04688,0.33594 0.875,0.33593 1.28906,0.90625 0.41406,0.57031 0.57032,1.52343 l -1.625,0.21875 q -0.10938,-0.75 -0.64844,-1.17968 -0.53906,-0.42969 -1.50782,-0.42969 -1.15624,0 -1.64062,0.38281 -0.48438,0.38281 -0.48438,0.88281 0,0.32813 0.20313,0.59375 0.20313,0.26563 0.64063,0.4375 0.25,0.0937 1.46874,0.4375 1.76563,0.46875 2.46876,0.76563 0.70312,0.29687 1.10156,0.875 0.39844,0.57812 0.39844,1.4375 0,0.82812 -0.48438,1.57031 -0.48438,0.74219 -1.40625,1.14063 -0.92187,0.39843 -2.07813,0.39843 -1.92187,0 -2.92968,-0.79687 -1.00782,-0.79688 -1.28906,-2.35938 z m 16.75,-0.23437 1.71874,0.21875 q -0.40624,1.5 -1.5078,2.33594 -1.10157,0.83593 -2.82032,0.83593 -2.15625,0 -3.42188,-1.32812 -1.26562,-1.32813 -1.26562,-3.73438 0,-2.48437 1.27344,-3.85937 1.27344,-1.375 3.32031,-1.375 1.98437,0 3.23437,1.34375 1.25,1.34375 1.25,3.79687 0,0.14063 -0.0156,0.4375 l -7.34375,0 q 0.0937,1.625 0.92187,2.48438 0.82813,0.85937 2.0625,0.85937 0.90626,0 1.5547,-0.47656 0.64843,-0.47656 1.03906,-1.53906 z m -5.48438,-2.70313 5.5,0 q -0.10938,-1.23437 -0.625,-1.85937 -0.79688,-0.96875 -2.07812,-0.96875 -1.14063,0 -1.92969,0.77344 -0.78907,0.77343 -0.86719,2.05468 z m 9.09375,5.875 0,-9.85937 1.5,0 0,1.5 q 0.57813,-1.04688 1.0625,-1.38281 0.48437,-0.33594 1.07813,-0.33594 0.84374,0 1.71874,0.54687 l -0.57812,1.54688 q -0.60938,-0.35938 -1.23438,-0.35938 -0.54687,0 -0.97656,0.32813 -0.42968,0.32812 -0.61718,0.90625 -0.28126,0.89062 -0.28126,1.95312 l 0,5.15625 -1.67187,0 z m 8.96875,0 -3.75,-9.85937 1.76562,0 2.125,5.90625 q 0.34376,0.95312 0.625,1.98437 0.21876,-0.78125 0.625,-1.875 l 2.1875,-6.01562 1.71876,0 -3.73438,9.85937 -1.5625,0 z m 13.34375,-3.17187 1.71875,0.21875 q -0.40625,1.5 -1.50781,2.33594 -1.10157,0.83593 -2.82031,0.83593 -2.15626,0 -3.42188,-1.32812 -1.26562,-1.32813 -1.26562,-3.73438 0,-2.48437 1.27344,-3.85937 1.27343,-1.375 3.3203,-1.375 1.98438,0 3.23438,1.34375 1.25,1.34375 1.25,3.79687 0,0.14063 -0.0156,0.4375 l -7.34376,0 q 0.0938,1.625 0.92188,2.48438 0.82812,0.85937 2.0625,0.85937 0.90625,0 1.55469,-0.47656 0.64843,-0.47656 1.03906,-1.53906 z m -5.48437,-2.70313 5.5,0 q -0.10938,-1.23437 -0.625,-1.85937 -0.79688,-0.96875 -2.07813,-0.96875 -1.14063,0 -1.92969,0.77344 -0.78906,0.77343 -0.86718,2.05468 z m 9.09374,5.875 0,-9.85937 1.5,0 0,1.5 q 0.57813,-1.04688 1.0625,-1.38281 0.48438,-0.33594 1.07813,-0.33594 0.84375,0 1.71875,0.54687 l -0.57812,1.54688 q -0.60938,-0.35938 -1.23438,-0.35938 -0.54688,0 -0.97656,0.32813 -0.42969,0.32812 -0.61719,0.90625 -0.28125,0.89062 -0.28125,1.95312 l 0,5.15625 -1.67188,0 z m 4.6875,3.78125 0,-1.21875 11.0625,0 0,1.21875 -11.0625,0 z m 18.34376,-7.39062 1.64062,0.21875 q -0.26562,1.6875 -1.375,2.64844 -1.10938,0.96093 -2.73438,0.96093 -2.01562,0 -3.24218,-1.32031 -1.22656,-1.32031 -1.22656,-3.78906 0,-1.59375 0.52344,-2.78906 0.52343,-1.19532 1.60937,-1.79688 1.08593,-0.60156 2.35156,-0.60156 1.60937,0 2.625,0.8125 1.01563,0.8125 1.3125,2.3125 l -1.625,0.25 q -0.23437,-1 -0.82813,-1.5 -0.59374,-0.5 -1.42187,-0.5 -1.26563,0 -2.05469,0.90625 -0.78906,0.90625 -0.78906,2.85937 0,1.98438 0.76562,2.88282 0.76563,0.89843 1.98438,0.89843 0.98438,0 1.64062,-0.60156 0.65626,-0.60156 0.84376,-1.85156 z m 2.26562,-1.3125 q 0,-2.73438 1.53125,-4.0625 1.26563,-1.09375 3.09375,-1.09375 2.03125,0 3.32032,1.33594 1.28906,1.33593 1.28906,3.67968 0,1.90625 -0.57032,2.99219 -0.57031,1.08594 -1.65624,1.6875 -1.08594,0.60156 -2.38282,0.60156 -2.0625,0 -3.34375,-1.32812 -1.28125,-1.32813 -1.28125,-3.8125 z m 1.71875,0 q 0,1.89062 0.82813,2.82812 0.82812,0.9375 2.07812,0.9375 1.25,0 2.07032,-0.94531 0.8203,-0.94531 0.8203,-2.88281 0,-1.82813 -0.82812,-2.76563 -0.82812,-0.9375 -2.0625,-0.9375 -1.25,0 -2.07812,0.9375 -0.82813,0.9375 -0.82813,2.82813 z m 9.28125,4.92187 0,-9.85937 1.5,0 0,1.40625 q 1.09375,-1.625 3.14062,-1.625 0.89063,0 1.64063,0.32031 0.75,0.32031 1.11719,0.84375 0.36718,0.52344 0.52344,1.22656 0.0937,0.46875 0.0937,1.625 l 0,6.0625 -1.67187,0 0,-6 q 0,-1.01562 -0.19531,-1.52343 -0.19532,-0.50782 -0.69532,-0.80469 -0.5,-0.29688 -1.17187,-0.29688 -1.0625,0 -1.83593,0.67188 -0.77344,0.67187 -0.77344,2.57812 l 0,5.375 -1.67188,0 z m 10.375,0 0,-9.85937 1.5,0 0,1.40625 q 1.09375,-1.625 3.14062,-1.625 0.89063,0 1.64063,0.32031 0.75,0.32031 1.11719,0.84375 0.36718,0.52344 0.52344,1.22656 0.0937,0.46875 0.0937,1.625 l 0,6.0625 -1.67187,0 0,-6 q 0,-1.01562 -0.19531,-1.52343 -0.19532,-0.50782 -0.69532,-0.80469 -0.5,-0.29688 -1.17187,-0.29688 -1.0625,0 -1.83593,0.67188 -0.77344,0.67187 -0.77344,2.57812 l 0,5.375 -1.67188,0 z m 17.125,-3.17187 1.71875,0.21875 q -0.40625,1.5 -1.50781,2.33594 -1.10156,0.83593 -2.82032,0.83593 -2.15624,0 -3.42187,-1.32812 -1.26563,-1.32813 -1.26563,-3.73438 0,-2.48437 1.27344,-3.85937 1.27344,-1.375 3.32032,-1.375 1.98437,0 3.23437,1.34375 1.25,1.34375 1.25,3.79687 0,0.14063 -0.0156,0.4375 l -7.34374,0 q 0.0937,1.625 0.92187,2.48438 0.82813,0.85937 2.0625,0.85937 0.90625,0 1.55469,-0.47656 0.64844,-0.47656 1.03906,-1.53906 z m -5.48438,-2.70313 5.5,0 q -0.10937,-1.23437 -0.625,-1.85937 -0.79687,-0.96875 -2.07812,-0.96875 -1.14062,0 -1.92968,0.77344 -0.78907,0.77343 -0.8672,2.05468 z m 15.54688,2.26563 1.64062,0.21875 q -0.26562,1.6875 -1.375,2.64844 -1.10937,0.96093 -2.73437,0.96093 -2.01563,0 -3.24219,-1.32031 -1.22656,-1.32031 -1.22656,-3.78906 0,-1.59375 0.52344,-2.78906 0.52344,-1.19532 1.60938,-1.79688 1.08593,-0.60156 2.35156,-0.60156 1.60937,0 2.625,0.8125 1.01562,0.8125 1.3125,2.3125 l -1.625,0.25 q -0.23438,-1 -0.82813,-1.5 -0.59375,-0.5 -1.42187,-0.5 -1.26563,0 -2.05469,0.90625 -0.78907,0.90625 -0.78907,2.85937 0,1.98438 0.76563,2.88282 0.76563,0.89843 1.98437,0.89843 0.98438,0 1.64063,-0.60156 0.65625,-0.60156 0.84375,-1.85156 z m 6.54688,2.10937 0.23437,1.48438 q -0.70313,0.14062 -1.26563,0.14062 -0.90624,0 -1.40624,-0.28906 -0.5,-0.28906 -0.70313,-0.75 -0.20313,-0.46094 -0.20313,-1.97656 l 0,-5.65625 -1.23437,0 0,-1.3125 1.23437,0 0,-2.4375 1.65626,-1 0,3.4375 1.6875,0 0,1.3125 -1.6875,0 0,5.75 q 0,0.71875 0.0859,0.92187 0.0859,0.20313 0.28906,0.32813 0.20312,0.125 0.57812,0.125 0.26562,0 0.73438,-0.0781 z"
     id="path30"
     style="fill:#000000;fill-rule:nonzero" />
  <path
     d="m 487.6558,192.7927 -212,0"
     id="path32"
     style="stroke:#073763;stroke-width:2;stroke-linecap:butt;stroke-linejoin:round" />
  <path
     d="m 275.6558,189.48923 -9.0762,3.30347 9.0762,3.30346 z"
     id="path34"
     style="fill:#073763;fill-rule:evenodd;stroke:#073763;stroke-width:2;stroke-linecap:butt" />
  <path
     d="m 327.85345,189.65674 q -0.9375,0.79687 -1.79687,1.11719 -0.85938,0.32031 -1.84375,0.32031 -1.60938,0 -2.48438,-0.78906 -0.875,-0.78907 -0.875,-2.02344 0,-0.73438 0.32813,-1.32813 0.32812,-0.59375 0.85937,-0.95312 0.53125,-0.35938 1.20313,-0.54688 0.5,-0.14062 1.48437,-0.25 2.03125,-0.25 2.98438,-0.57812 0,-0.34375 0,-0.4375 0,-1.01563 -0.46875,-1.4375 -0.64063,-0.5625 -1.90625,-0.5625 -1.17188,0 -1.73438,0.40625 -0.5625,0.40625 -0.82812,1.46875 l -1.64063,-0.23438 q 0.23438,-1.04687 0.7422,-1.6875 0.5078,-0.64062 1.46874,-0.99218 0.96094,-0.35157 2.24219,-0.35157 1.26562,0 2.04687,0.29688 0.78125,0.29687 1.15625,0.75 0.375,0.45312 0.51563,1.14062 0.0937,0.42188 0.0937,1.53125 l 0,2.23438 q 0,2.32812 0.10157,2.94531 0.10155,0.61719 0.42968,1.17969 l -1.75,0 q -0.26563,-0.51563 -0.32813,-1.21875 z m -0.14062,-3.71875 q -0.90625,0.35937 -2.73438,0.625 -1.03125,0.14062 -1.45312,0.32812 -0.42188,0.1875 -0.65625,0.54688 -0.23438,0.35937 -0.23438,0.79687 0,0.67188 0.50782,1.11719 0.50781,0.44531 1.47656,0.44531 0.96875,0 1.71875,-0.42968 0.75,-0.42969 1.10937,-1.14844 0.26563,-0.57813 0.26563,-1.67188 l 0,-0.60937 z m 10.53125,4.9375 0,-1.45313 q -1.14063,1.67188 -3.125,1.67188 -0.85938,0 -1.61718,-0.33594 -0.75782,-0.33594 -1.125,-0.83594 -0.3672,-0.5 -0.52345,-1.23437 -0.0937,-0.5 -0.0937,-1.5625 l 0,-6.10938 1.67188,0 0,5.46875 q 0,1.3125 0.0937,1.76563 0.15625,0.65625 0.67187,1.03125 0.51563,0.375 1.26563,0.375 0.75,0 1.40625,-0.38281 0.65625,-0.38282 0.92969,-1.04688 0.27343,-0.66406 0.27343,-1.92969 l 0,-5.28125 1.67188,0 0,9.85938 -1.5,0 z m 7.57812,-1.5 0.23438,1.48437 q -0.70313,0.14063 -1.26563,0.14063 -0.90625,0 -1.40625,-0.28906 -0.5,-0.28907 -0.70312,-0.75 -0.20313,-0.46094 -0.20313,-1.97657 l 0,-5.65625 -1.23437,0 0,-1.3125 1.23437,0 0,-2.4375 1.65625,-1 0,3.4375 1.6875,0 0,1.3125 -1.6875,0 0,5.75 q 0,0.71875 0.0859,0.92188 0.0859,0.20312 0.28906,0.32812 0.20313,0.125 0.57813,0.125 0.26562,0 0.73437,-0.0781 z m 1.51563,1.5 0,-13.59375 1.67187,0 0,4.875 q 1.17188,-1.35938 2.95313,-1.35938 1.09375,0 1.89844,0.42969 0.80468,0.42969 1.15625,1.19531 0.35156,0.76563 0.35156,2.20313 l 0,6.25 -1.67188,0 0,-6.25 q 0,-1.25 -0.54687,-1.82031 -0.54688,-0.57032 -1.53125,-0.57032 -0.75,0 -1.39844,0.38282 -0.64844,0.38281 -0.92969,1.04687 -0.28125,0.66406 -0.28125,1.82031 l 0,5.39063 -1.67187,0 z m 8.85937,3.78125 0,-1.21875 11.0625,0 0,1.21875 -11.0625,0 z m 18.34375,-7.39063 1.64063,0.21875 q -0.26563,1.6875 -1.375,2.64844 -1.10938,0.96094 -2.73438,0.96094 -2.01562,0 -3.24218,-1.32031 -1.22657,-1.32032 -1.22657,-3.78907 0,-1.59375 0.52345,-2.78906 0.52343,-1.19531 1.60937,-1.79687 1.08593,-0.60157 2.35156,-0.60157 1.60937,0 2.625,0.8125 1.01562,0.8125 1.3125,2.3125 l -1.625,0.25 q -0.23438,-1 -0.82813,-1.5 -0.59375,-0.5 -1.42187,-0.5 -1.26563,0 -2.05469,0.90625 -0.78906,0.90625 -0.78906,2.85938 0,1.98437 0.76562,2.88281 0.76563,0.89844 1.98438,0.89844 0.98437,0 1.64062,-0.60156 0.65625,-0.60157 0.84375,-1.85157 z m 2.89063,3.60938 0,-13.59375 1.67187,0 0,4.875 q 1.17188,-1.35938 2.95313,-1.35938 1.09375,0 1.89844,0.42969 0.80468,0.42969 1.15625,1.19531 0.35156,0.76563 0.35156,2.20313 l 0,6.25 -1.67188,0 0,-6.25 q 0,-1.25 -0.54687,-1.82031 -0.54688,-0.57032 -1.53125,-0.57032 -0.75,0 -1.39843,0.38282 -0.64845,0.38281 -0.9297,1.04687 -0.28125,0.66406 -0.28125,1.82031 l 0,5.39063 -1.67187,0 z m 16.8125,-1.21875 q -0.9375,0.79687 -1.79688,1.11719 -0.85937,0.32031 -1.84375,0.32031 -1.60937,0 -2.48437,-0.78906 -0.875,-0.78907 -0.875,-2.02344 0,-0.73438 0.32812,-1.32813 0.32813,-0.59375 0.85938,-0.95312 0.53125,-0.35938 1.20312,-0.54688 0.5,-0.14062 1.48438,-0.25 2.03125,-0.25 2.98437,-0.57812 0,-0.34375 0,-0.4375 0,-1.01563 -0.46875,-1.4375 -0.64062,-0.5625 -1.90625,-0.5625 -1.17187,0 -1.73437,0.40625 -0.5625,0.40625 -0.82813,1.46875 l -1.64062,-0.23438 q 0.23437,-1.04687 0.74219,-1.6875 0.50781,-0.64062 1.46875,-0.99218 0.96093,-0.35157 2.24218,-0.35157 1.26563,0 2.04688,0.29688 0.78125,0.29687 1.15625,0.75 0.375,0.45312 0.51562,1.14062 0.0937,0.42188 0.0937,1.53125 l 0,2.23438 q 0,2.32812 0.10157,2.94531 0.10156,0.61719 0.42968,1.17969 l -1.75,0 q -0.26562,-0.51563 -0.32812,-1.21875 z m -0.14063,-3.71875 q -0.90625,0.35937 -2.73437,0.625 -1.03125,0.14062 -1.45313,0.32812 -0.42187,0.1875 -0.65625,0.54688 -0.23437,0.35937 -0.23437,0.79687 0,0.67188 0.50781,1.11719 0.50781,0.44531 1.47656,0.44531 0.96875,0 1.71875,-0.42968 0.75,-0.42969 1.10938,-1.14844 0.26562,-0.57813 0.26562,-1.67188 l 0,-0.60937 z m 4.04688,4.9375 0,-13.59375 1.67187,0 0,13.59375 -1.67187,0 z m 4.14062,0 0,-13.59375 1.67188,0 0,13.59375 -1.67188,0 z m 10.92188,-3.17188 1.71875,0.21875 q -0.40625,1.5 -1.50781,2.33594 -1.10157,0.83594 -2.82032,0.83594 -2.15625,0 -3.42187,-1.32813 -1.26563,-1.32812 -1.26563,-3.73437 0,-2.48438 1.27345,-3.85938 1.27343,-1.375 3.3203,-1.375 1.98438,0 3.23438,1.34375 1.25,1.34375 1.25,3.79688 0,0.14062 -0.0156,0.4375 l -7.34375,0 q 0.0937,1.625 0.92188,2.48437 0.82812,0.85938 2.0625,0.85938 0.90625,0 1.55469,-0.47656 0.64843,-0.47657 1.03906,-1.53907 z m -5.48438,-2.70312 5.5,0 q -0.10937,-1.23438 -0.625,-1.85938 -0.79687,-0.96875 -2.07812,-0.96875 -1.14063,0 -1.92969,0.77344 -0.78906,0.77344 -0.86719,2.05469 z m 9.10938,5.875 0,-9.85938 1.5,0 0,1.40625 q 1.09375,-1.625 3.14062,-1.625 0.89063,0 1.64063,0.32032 0.75,0.32031 1.11719,0.84375 0.36718,0.52343 0.52343,1.22656 0.0937,0.46875 0.0937,1.625 l 0,6.0625 -1.67187,0 0,-6 q 0,-1.01563 -0.19531,-1.52344 -0.19532,-0.50781 -0.69532,-0.80469 -0.5,-0.29687 -1.17187,-0.29687 -1.0625,0 -1.83594,0.67187 -0.77344,0.67188 -0.77344,2.57813 l 0,5.375 -1.67187,0 z m 10.07812,0.8125 1.60938,0.25 q 0.10937,0.75 0.57812,1.09375 0.60938,0.45312 1.6875,0.45312 1.17188,0 1.79688,-0.46093 0.625,-0.46094 0.85937,-1.28907 0.125,-0.51562 0.10938,-2.15625 -1.09375,1.29688 -2.71875,1.29688 -2.03125,0 -3.14843,-1.46875 -1.1172,-1.46875 -1.1172,-3.51563 0,-1.40625 0.51563,-2.60156 0.51562,-1.19531 1.48437,-1.84375 0.96875,-0.64844 2.26563,-0.64844 1.75,0 2.875,1.40625 l 0,-1.1875 1.54687,0 0,8.51563 q 0,2.3125 -0.46875,3.27344 -0.46875,0.96093 -1.48437,1.51562 -1.01563,0.55469 -2.5,0.55469 -1.76563,0 -2.85156,-0.79688 -1.08594,-0.79687 -1.03907,-2.39062 z m 1.375,-5.92188 q 0,1.95313 0.77345,2.84375 0.77343,0.89063 1.92968,0.89063 1.14062,0 1.92187,-0.89063 0.78125,-0.89062 0.78125,-2.78125 0,-1.8125 -0.80468,-2.72656 -0.80469,-0.91406 -1.92969,-0.91406 -1.10938,0 -1.89063,0.89844 -0.78125,0.89843 -0.78125,2.67968 z m 16.04688,1.9375 1.71875,0.21875 q -0.40625,1.5 -1.50781,2.33594 -1.10157,0.83594 -2.82032,0.83594 -2.15625,0 -3.42187,-1.32813 -1.26563,-1.32812 -1.26563,-3.73437 0,-2.48438 1.27345,-3.85938 1.27343,-1.375 3.3203,-1.375 1.98438,0 3.23438,1.34375 1.25,1.34375 1.25,3.79688 0,0.14062 -0.0156,0.4375 l -7.34375,0 q 0.0937,1.625 0.92188,2.48437 0.82812,0.85938 2.0625,0.85938 0.90625,0 1.55469,-0.47656 0.64843,-0.47657 1.03906,-1.53907 z m -5.48438,-2.70312 5.5,0 q -0.10937,-1.23438 -0.625,-1.85938 -0.79687,-0.96875 -2.07812,-0.96875 -1.14063,0 -1.92969,0.77344 -0.78906,0.77344 -0.86719,2.05469 z"
     id="path36"
     style="fill:#000000;fill-rule:nonzero" />
  <path
     d="m 329.0509,222.42857 q -0.9375,0.79688 -1.79687,1.11719 -0.85938,0.32031 -1.84375,0.32031 -1.60938,0 -2.48438,-0.78906 -0.875,-0.78906 -0.875,-2.02344 0,-0.73437 0.32813,-1.32812 0.32812,-0.59375 0.85937,-0.95313 0.53125,-0.35937 1.20313,-0.54687 0.5,-0.14063 1.48437,-0.25 2.03125,-0.25 2.98438,-0.57813 0,-0.34375 0,-0.4375 0,-1.01562 -0.46875,-1.4375 -0.64063,-0.5625 -1.90625,-0.5625 -1.17188,0 -1.73438,0.40625 -0.5625,0.40625 -0.82812,1.46875 l -1.64063,-0.23437 q 0.23438,-1.04688 0.74219,-1.6875 0.50781,-0.64063 1.46876,-0.99219 0.96093,-0.35156 2.24218,-0.35156 1.26562,0 2.04687,0.29687 0.78125,0.29688 1.15625,0.75 0.375,0.45313 0.51563,1.14063 0.0937,0.42187 0.0937,1.53125 l 0,2.23437 q 0,2.32813 0.10156,2.94532 0.10156,0.61718 0.42969,1.17968 l -1.75,0 q -0.26563,-0.51562 -0.32813,-1.21875 z m -0.14062,-3.71875 q -0.90625,0.35938 -2.73438,0.625 -1.03125,0.14063 -1.45312,0.32813 -0.42188,0.1875 -0.65625,0.54687 -0.23438,0.35938 -0.23438,0.79688 0,0.67187 0.50782,1.11719 0.50781,0.44531 1.47656,0.44531 0.96875,0 1.71875,-0.42969 0.75,-0.42969 1.10937,-1.14844 0.26563,-0.57812 0.26563,-1.67187 l 0,-0.60938 z m 10.53125,4.9375 0,-1.45312 q -1.14063,1.67187 -3.125,1.67187 -0.85938,0 -1.61719,-0.33593 -0.75781,-0.33594 -1.125,-0.83594 -0.36719,-0.5 -0.52344,-1.23438 -0.0937,-0.5 -0.0937,-1.5625 l 0,-6.10937 1.67188,0 0,5.46875 q 0,1.3125 0.0937,1.76562 0.15625,0.65625 0.67187,1.03125 0.51563,0.375 1.26563,0.375 0.75,0 1.40625,-0.38281 0.65625,-0.38281 0.92969,-1.04687 0.27343,-0.66407 0.27343,-1.92969 l 0,-5.28125 1.67188,0 0,9.85937 -1.5,0 z m 7.57812,-1.5 0.23438,1.48438 q -0.70313,0.14062 -1.26563,0.14062 -0.90625,0 -1.40625,-0.28906 -0.5,-0.28906 -0.70312,-0.75 -0.20313,-0.46094 -0.20313,-1.97656 l 0,-5.65625 -1.23437,0 0,-1.3125 1.23437,0 0,-2.4375 1.65625,-1 0,3.4375 1.6875,0 0,1.3125 -1.6875,0 0,5.75 q 0,0.71875 0.0859,0.92187 0.0859,0.20313 0.28905,0.32813 0.20313,0.125 0.57813,0.125 0.26562,0 0.73437,-0.0781 z m 1.51563,1.5 0,-13.59375 1.67187,0 0,4.875 q 1.17188,-1.35937 2.95313,-1.35937 1.09375,0 1.89844,0.42969 0.80468,0.42968 1.15625,1.19531 0.35156,0.76562 0.35156,2.20312 l 0,6.25 -1.67188,0 0,-6.25 q 0,-1.25 -0.54687,-1.82031 -0.54688,-0.57031 -1.53125,-0.57031 -0.75,0 -1.39843,0.38281 -0.64845,0.38281 -0.9297,1.04688 -0.28125,0.66406 -0.28125,1.82031 l 0,5.39062 -1.67187,0 z m 8.84375,3.78125 0,-1.21875 11.0625,0 0,1.21875 -11.0625,0 z m 11.90625,-3.78125 0,-9.85937 1.5,0 0,1.5 q 0.57812,-1.04688 1.0625,-1.38281 0.48437,-0.33594 1.07812,-0.33594 0.84375,0 1.71875,0.54687 l -0.57812,1.54688 q -0.60938,-0.35938 -1.23438,-0.35938 -0.54687,0 -0.97655,0.32813 -0.4297,0.32812 -0.6172,0.90625 -0.28125,0.89062 -0.28125,1.95312 l 0,5.15625 -1.67187,0 z m 12.96875,-3.17187 1.71875,0.21875 q -0.40625,1.5 -1.50781,2.33594 -1.10157,0.83593 -2.82032,0.83593 -2.15625,0 -3.42187,-1.32812 -1.26563,-1.32813 -1.26563,-3.73438 0,-2.48437 1.27345,-3.85937 1.27343,-1.375 3.3203,-1.375 1.98438,0 3.23438,1.34375 1.25,1.34375 1.25,3.79687 0,0.14063 -0.0156,0.4375 l -7.34375,0 q 0.0937,1.625 0.92188,2.48438 0.82812,0.85937 2.0625,0.85937 0.90625,0 1.55469,-0.47656 0.64843,-0.47656 1.03906,-1.53906 z m -5.48438,-2.70313 5.5,0 q -0.10937,-1.23437 -0.625,-1.85937 -0.79687,-0.96875 -2.07812,-0.96875 -1.14063,0 -1.92969,0.77344 -0.78906,0.77343 -0.86719,2.05468 z m 8.4375,2.9375 1.65625,-0.26562 q 0.14063,1 0.77344,1.52344 0.63281,0.52343 1.77344,0.52343 1.15625,0 1.71094,-0.46875 0.55468,-0.46875 0.55468,-1.09375 0,-0.5625 -0.48437,-0.89062 -0.34375,-0.21875 -1.70313,-0.5625 -1.84375,-0.46875 -2.55468,-0.80469 -0.71094,-0.33594 -1.07812,-0.9375 -0.3672,-0.60156 -0.3672,-1.32031 0,-0.65625 0.3047,-1.21875 0.30468,-0.5625 0.8203,-0.9375 0.39063,-0.28125 1.0625,-0.48438 0.67188,-0.20312 1.4375,-0.20312 1.17188,0 2.04688,0.33594 0.875,0.33593 1.28906,0.90625 0.41406,0.57031 0.57031,1.52343 l -1.625,0.21875 q -0.10937,-0.75 -0.64843,-1.17968 -0.53907,-0.42969 -1.50782,-0.42969 -1.15625,0 -1.64062,0.38281 -0.48438,0.38281 -0.48438,0.88281 0,0.32813 0.20313,0.59375 0.20312,0.26563 0.64062,0.4375 0.25,0.0937 1.46875,0.4375 1.76563,0.46875 2.46875,0.76563 0.70313,0.29687 1.10157,0.875 0.39843,0.57812 0.39843,1.4375 0,0.82812 -0.48437,1.57031 -0.48438,0.74219 -1.40625,1.14063 -0.92188,0.39843 -2.07813,0.39843 -1.92187,0 -2.92968,-0.79687 -1.00782,-0.79688 -1.28907,-2.35938 z m 10,6.71875 0,-13.64062 1.53125,0 0,1.28125 q 0.53125,-0.75 1.21094,-1.125 0.67969,-0.375 1.63281,-0.375 1.26563,0 2.23438,0.64844 0.96875,0.64843 1.46094,1.83593 0.49218,1.1875 0.49218,2.59375 0,1.51563 -0.54687,2.72657 -0.54688,1.21093 -1.57813,1.85156 -1.03125,0.64062 -2.17187,0.64062 -0.84375,0 -1.50781,-0.35156 -0.66407,-0.35156 -1.08594,-0.88281 l 0,4.79687 -1.67188,0 z m 1.51563,-8.65625 q 0,1.90625 0.77344,2.8125 0.77343,0.90625 1.86718,0.90625 1.10938,0 1.89844,-0.9375 0.78906,-0.9375 0.78906,-2.92187 0,-1.875 -0.77343,-2.8125 -0.77344,-0.9375 -1.85157,-0.9375 -1.0625,0 -1.8828,1 -0.82032,1 -0.82032,2.89062 z m 8.23437,-0.0469 q 0,-2.73438 1.53125,-4.0625 1.26563,-1.09375 3.09375,-1.09375 2.03125,0 3.32032,1.33594 1.28906,1.33593 1.28906,3.67968 0,1.90625 -0.57031,2.99219 -0.57032,1.08594 -1.65625,1.6875 -1.08594,0.60156 -2.38282,0.60156 -2.0625,0 -3.34375,-1.32812 -1.28125,-1.32813 -1.28125,-3.8125 z m 1.71875,0 q 0,1.89062 0.82813,2.82812 0.82812,0.9375 2.07812,0.9375 1.25,0 2.07032,-0.94531 0.82031,-0.94531 0.82031,-2.88281 0,-1.82813 -0.82813,-2.76563 -0.82812,-0.9375 -2.0625,-0.9375 -1.25,0 -2.07812,0.9375 -0.82813,0.9375 -0.82813,2.82813 z m 9.28125,4.92187 0,-9.85937 1.5,0 0,1.40625 q 1.09375,-1.625 3.14063,-1.625 0.89062,0 1.64062,0.32031 0.75,0.32031 1.1172,0.84375 0.36718,0.52344 0.52343,1.22656 0.0937,0.46875 0.0937,1.625 l 0,6.0625 -1.67188,0 0,-6 q 0,-1.01562 -0.1953,-1.52343 -0.19532,-0.50782 -0.69532,-0.80469 -0.5,-0.29688 -1.17188,-0.29688 -1.0625,0 -1.83593,0.67188 -0.77344,0.67187 -0.77344,2.57812 l 0,5.375 -1.67188,0 z m 9.70313,-2.9375 1.65625,-0.26562 q 0.14062,1 0.77344,1.52344 0.63281,0.52343 1.77343,0.52343 1.15625,0 1.71094,-0.46875 0.55469,-0.46875 0.55469,-1.09375 0,-0.5625 -0.48438,-0.89062 -0.34375,-0.21875 -1.70312,-0.5625 -1.84375,-0.46875 -2.55469,-0.80469 -0.71094,-0.33594 -1.07812,-0.9375 -0.36719,-0.60156 -0.36719,-1.32031 0,-0.65625 0.30469,-1.21875 0.30468,-0.5625 0.82031,-0.9375 0.39062,-0.28125 1.0625,-0.48438 0.67187,-0.20312 1.4375,-0.20312 1.17187,0 2.04687,0.33594 0.875,0.33593 1.28907,0.90625 0.41406,0.57031 0.57031,1.52343 l -1.625,0.21875 q -0.10938,-0.75 -0.64844,-1.17968 -0.53906,-0.42969 -1.50781,-0.42969 -1.15625,0 -1.64063,0.38281 -0.48437,0.38281 -0.48437,0.88281 0,0.32813 0.20312,0.59375 0.20313,0.26563 0.64063,0.4375 0.25,0.0937 1.46875,0.4375 1.76562,0.46875 2.46875,0.76563 0.70312,0.29687 1.10156,0.875 0.39844,0.57812 0.39844,1.4375 0,0.82812 -0.48438,1.57031 -0.48437,0.74219 -1.40625,1.14063 -0.92187,0.39843 -2.07812,0.39843 -1.92188,0 -2.92969,-0.79687 -1.00781,-0.79688 -1.28906,-2.35938 z m 16.75,-0.23437 1.71875,0.21875 q -0.40625,1.5 -1.50781,2.33594 -1.10157,0.83593 -2.82032,0.83593 -2.15625,0 -3.42187,-1.32812 -1.26563,-1.32813 -1.26563,-3.73438 0,-2.48437 1.27344,-3.85937 1.27344,-1.375 3.32031,-1.375 1.98438,0 3.23438,1.34375 1.25,1.34375 1.25,3.79687 0,0.14063 -0.0156,0.4375 l -7.34375,0 q 0.0937,1.625 0.92188,2.48438 0.82812,0.85937 2.0625,0.85937 0.90625,0 1.55469,-0.47656 0.64843,-0.47656 1.03906,-1.53906 z m -5.48438,-2.70313 5.5,0 q -0.10937,-1.23437 -0.625,-1.85937 -0.79687,-0.96875 -2.07812,-0.96875 -1.14063,0 -1.92968,0.77344 -0.78907,0.77343 -0.8672,2.05468 z"
     id="path38"
     style="fill:#000000;fill-rule:nonzero" />
  <path
     d="m 263.6558,224.7927 204,0"
     id="path40"
     style="stroke:#073763;stroke-width:2;stroke-linecap:butt;stroke-linejoin:round" />
  <path
     d="m 467.6558,228.09616 9.0762,-3.30346 -9.0762,-3.30347 z"
     id="path42"
     style="fill:#073763;fill-rule:evenodd;stroke:#073763;stroke-width:2;stroke-linecap:butt" />
  <path
     d="m 479.6558,256.7927 -204,0"
     id="path44"
     style="stroke:#073763;stroke-width:2;stroke-linecap:butt;stroke-linejoin:round" />
  <path
     d="m 275.6558,253.48923 -9.0762,3.30347 9.0762,3.30346 z"
     id="path46"
     style="fill:#073763;fill-rule:evenodd;stroke:#073763;stroke-width:2;stroke-linecap:butt" />
  <path
     d="m 337.83237,251.47472 1.64063,0.21875 q -0.26563,1.6875 -1.375,2.64843 -1.10938,0.96094 -2.73438,0.96094 -2.01562,0 -3.24219,-1.32031 -1.22656,-1.32031 -1.22656,-3.78906 0,-1.59375 0.52343,-2.78907 0.52344,-1.19531 1.60938,-1.79687 1.08594,-0.60156 2.35156,-0.60156 1.60938,0 2.625,0.8125 1.01563,0.8125 1.3125,2.3125 l -1.625,0.25 q -0.23437,-1 -0.82812,-1.5 -0.59375,-0.5 -1.42188,-0.5 -1.26562,0 -2.05469,0.90625 -0.78905,0.90625 -0.78905,2.85937 0,1.98438 0.76562,2.88281 0.76562,0.89844 1.98438,0.89844 0.98437,0 1.64062,-0.60156 0.65625,-0.60156 0.84375,-1.85156 z m 2.85937,3.60937 0,-13.59375 1.67188,0 0,13.59375 -1.67188,0 z m 4.1875,-11.6875 0,-1.90625 1.67188,0 0,1.90625 -1.67188,0 z m 0,11.6875 0,-9.85937 1.67188,0 0,9.85937 -1.67188,0 z m 10.875,-3.17187 1.71876,0.21875 q -0.40626,1.5 -1.50782,2.33593 -1.10156,0.83594 -2.82031,0.83594 -2.15625,0 -3.42187,-1.32812 -1.26563,-1.32813 -1.26563,-3.73438 0,-2.48437 1.27343,-3.85937 1.27344,-1.375 3.32032,-1.375 1.98438,0 3.23438,1.34375 1.25,1.34375 1.25,3.79687 0,0.14063 -0.0156,0.4375 l -7.34375,0 q 0.0937,1.625 0.92188,2.48438 0.82812,0.85937 2.0625,0.85937 0.90624,0 1.55468,-0.47656 0.64844,-0.47656 1.03906,-1.53906 z m -5.48437,-2.70313 5.5,0 q -0.10937,-1.23437 -0.625,-1.85937 -0.79687,-0.96875 -2.07813,-0.96875 -1.14062,0 -1.92969,0.77343 -0.78905,0.77344 -0.86718,2.05469 z m 9.10937,5.875 0,-9.85937 1.5,0 0,1.40625 q 1.09376,-1.625 3.14063,-1.625 0.89063,0 1.64063,0.32031 0.75,0.32031 1.11718,0.84375 0.36719,0.52344 0.52344,1.22656 0.0937,0.46875 0.0937,1.625 l 0,6.0625 -1.67187,0 0,-6 q 0,-1.01562 -0.19532,-1.52344 -0.19531,-0.50781 -0.69531,-0.80468 -0.5,-0.29688 -1.17187,-0.29688 -1.0625,0 -1.83595,0.67188 -0.77343,0.67187 -0.77343,2.57812 l 0,5.375 -1.67188,0 z m 14.03126,-1.5 0.23437,1.48438 q -0.70313,0.14062 -1.26563,0.14062 -0.90624,0 -1.40624,-0.28906 -0.5,-0.28906 -0.70313,-0.75 -0.20313,-0.46094 -0.20313,-1.97656 l 0,-5.65625 -1.23437,0 0,-1.3125 1.23437,0 0,-2.4375 1.65626,-1 0,3.4375 1.6875,0 0,1.3125 -1.6875,0 0,5.75 q 0,0.71875 0.0859,0.92187 0.0859,0.20313 0.28907,0.32813 0.20312,0.125 0.57812,0.125 0.26562,0 0.73438,-0.0781 z m 0,5.28127 0,-1.21876 11.0625,0 0,1.21876 -11.0625,0 z m 18.29687,-3.78127 0,-1.25 q -0.9375,1.46875 -2.75,1.46875 -1.17187,0 -2.16407,-0.64844 -0.99218,-0.64843 -1.53125,-1.8125 -0.53905,-1.16406 -0.53905,-2.67968 0,-1.46875 0.49218,-2.67188 0.49219,-1.20312 1.46875,-1.84375 0.97657,-0.64062 2.19531,-0.64062 0.89063,0 1.58594,0.375 0.69532,0.375 1.13282,0.98437 l 0,-4.875 1.65624,0 0,13.59375 -1.54687,0 z m -5.28125,-4.92187 q 0,1.89062 0.80468,2.82812 0.8047,0.9375 1.88282,0.9375 1.09375,0 1.85938,-0.89062 0.76562,-0.89063 0.76562,-2.73438 0,-2.01562 -0.78125,-2.96094 -0.78125,-0.94531 -1.92187,-0.94531 -1.10938,0 -1.85938,0.90625 -0.75,0.90625 -0.75,2.85938 z m 15.70312,3.70312 q -0.9375,0.79688 -1.79687,1.11719 -0.85937,0.32031 -1.84375,0.32031 -1.60938,0 -2.48438,-0.78906 -0.875,-0.78906 -0.875,-2.02344 0,-0.73437 0.32813,-1.32812 0.32813,-0.59375 0.85937,-0.95313 0.53126,-0.35937 1.20313,-0.54687 0.5,-0.14063 1.48437,-0.25 2.03126,-0.25 2.98438,-0.57813 0,-0.34375 0,-0.4375 0,-1.01562 -0.46875,-1.4375 -0.64063,-0.5625 -1.90625,-0.5625 -1.17188,0 -1.73438,0.40625 -0.5625,0.40625 -0.82812,1.46875 l -1.64062,-0.23437 q 0.23437,-1.04688 0.74218,-1.6875 0.50782,-0.64063 1.46875,-0.99219 0.96094,-0.35156 2.24219,-0.35156 1.26562,0 2.04688,0.29687 0.78124,0.29688 1.15624,0.75 0.375,0.45313 0.51563,1.14063 0.0937,0.42187 0.0937,1.53125 l 0,2.23437 q 0,2.32813 0.10156,2.94531 0.10156,0.61719 0.42969,1.17969 l -1.75,0 q -0.26563,-0.51562 -0.32813,-1.21875 z m -0.14062,-3.71875 q -0.90625,0.35938 -2.73438,0.625 -1.03124,0.14063 -1.45312,0.32813 -0.42188,0.1875 -0.65625,0.54687 -0.23437,0.35938 -0.23437,0.79688 0,0.67187 0.5078,1.11718 0.50782,0.44532 1.47657,0.44532 0.96875,0 1.71875,-0.42969 0.75,-0.42969 1.10938,-1.14844 0.26562,-0.57812 0.26562,-1.67187 l 0,-0.60938 z m 7.73438,3.4375 0.23437,1.48438 q -0.70313,0.14062 -1.26563,0.14062 -0.90624,0 -1.40624,-0.28906 -0.5,-0.28906 -0.70313,-0.75 -0.20313,-0.46094 -0.20313,-1.97656 l 0,-5.65625 -1.23437,0 0,-1.3125 1.23437,0 0,-2.4375 1.65626,-1 0,3.4375 1.6875,0 0,1.3125 -1.6875,0 0,5.75 q 0,0.71875 0.0859,0.92187 0.0859,0.20313 0.28907,0.32813 0.20312,0.125 0.57812,0.125 0.26562,0 0.73438,-0.0781 z m 7.96874,0.28125 q -0.9375,0.79688 -1.79687,1.11719 -0.85937,0.32031 -1.84375,0.32031 -1.60938,0 -2.48438,-0.78906 -0.875,-0.78906 -0.875,-2.02344 0,-0.73437 0.32813,-1.32812 0.32813,-0.59375 0.85937,-0.95313 0.53126,-0.35937 1.20313,-0.54687 0.5,-0.14063 1.48437,-0.25 2.03126,-0.25 2.98438,-0.57813 0,-0.34375 0,-0.4375 0,-1.01562 -0.46875,-1.4375 -0.64063,-0.5625 -1.90625,-0.5625 -1.17188,0 -1.73438,0.40625 -0.5625,0.40625 -0.82812,1.46875 l -1.64062,-0.23437 q 0.23437,-1.04688 0.74218,-1.6875 0.50782,-0.64063 1.46875,-0.99219 0.96094,-0.35156 2.24219,-0.35156 1.26562,0 2.04688,0.29687 0.78124,0.29688 1.15624,0.75 0.375,0.45313 0.51563,1.14063 0.0937,0.42187 0.0937,1.53125 l 0,2.23437 q 0,2.32813 0.10156,2.94531 0.10156,0.61719 0.42969,1.17969 l -1.75,0 q -0.26563,-0.51562 -0.32813,-1.21875 z m -0.14062,-3.71875 q -0.90625,0.35938 -2.73438,0.625 -1.03124,0.14063 -1.45312,0.32813 -0.42188,0.1875 -0.65625,0.54687 -0.23437,0.35938 -0.23437,0.79688 0,0.67187 0.5078,1.11718 0.50782,0.44532 1.47657,0.44532 0.96875,0 1.71875,-0.42969 0.75,-0.42969 1.10938,-1.14844 0.26562,-0.57812 0.26562,-1.67187 l 0,-0.60938 z"
     id="path48"
     style="fill:#000000;fill-rule:nonzero" />
  <path
     d="m 48.04172,264.32333 183.77954,0 0,32.25197 -183.77954,0 z"
     id="path50"
     style="fill:#cfe2f3;fill-rule:nonzero;stroke:#073763;stroke-width:2;stroke-linecap:butt;stroke-linejoin:round" />
  <path
     d="m 99.24497,275.1254 0,-1.90625 1.67188,0 0,1.90625 -1.67188,0 z m 0,11.6875 0,-9.85938 1.67188,0 0,9.85938 -1.67188,0 z m 4.125,0 0,-9.85938 1.5,0 0,1.40625 q 1.09375,-1.625 3.14063,-1.625 0.89062,0 1.64062,0.32031 0.75,0.32032 1.11719,0.84375 0.36719,0.52344 0.52344,1.22657 0.0937,0.46875 0.0937,1.625 l 0,6.0625 -1.67188,0 0,-6 q 0,-1.01563 -0.19531,-1.52344 -0.19531,-0.50781 -0.69531,-0.80469 -0.5,-0.29687 -1.17188,-0.29687 -1.0625,0 -1.83593,0.67187 -0.77344,0.67188 -0.77344,2.57813 l 0,5.375 -1.67188,0 z m 10.39063,-11.6875 0,-1.90625 1.67187,0 0,1.90625 -1.67187,0 z m 0,11.6875 0,-9.85938 1.67187,0 0,9.85938 -1.67187,0 z m 7.79687,-1.5 0.23438,1.48437 q -0.70313,0.14063 -1.26563,0.14063 -0.90625,0 -1.40625,-0.28907 -0.5,-0.28906 -0.70312,-0.75 -0.20313,-0.46093 -0.20313,-1.97656 l 0,-5.65625 -1.23437,0 0,-1.3125 1.23437,0 0,-2.4375 1.65625,-1 0,3.4375 1.6875,0 0,1.3125 -1.6875,0 0,5.75 q 0,0.71875 0.0859,0.92188 0.0859,0.20312 0.28906,0.32812 0.20313,0.125 0.57813,0.125 0.26562,0 0.73437,-0.0781 z m 1.53125,-10.1875 0,-1.90625 1.67188,0 0,1.90625 -1.67188,0 z m 0,11.6875 0,-9.85938 1.67188,0 0,9.85938 -1.67188,0 z m 10.57812,-1.21875 q -0.9375,0.79687 -1.79688,1.11718 -0.85937,0.32032 -1.84375,0.32032 -1.60937,0 -2.48436,-0.78907 -0.875,-0.78906 -0.875,-2.02343 0,-0.73438 0.32812,-1.32813 0.32813,-0.59375 0.85938,-0.95312 0.53124,-0.35938 1.20311,-0.54688 0.5,-0.14062 1.48438,-0.25 2.03125,-0.25 2.98437,-0.57812 0,-0.34375 0,-0.4375 0,-1.01563 -0.46875,-1.4375 -0.64062,-0.5625 -1.90625,-0.5625 -1.17187,0 -1.73437,0.40625 -0.5625,0.40625 -0.82813,1.46875 l -1.64061,-0.23438 q 0.23437,-1.04687 0.74219,-1.6875 0.5078,-0.64062 1.46874,-0.99219 0.96093,-0.35156 2.24218,-0.35156 1.26563,0 2.04688,0.29688 0.78125,0.29687 1.15625,0.75 0.375,0.45312 0.51562,1.14062 0.0937,0.42188 0.0937,1.53125 l 0,2.23438 q 0,2.32812 0.10157,2.9453 0.10156,0.6172 0.42968,1.1797 l -1.75,0 q -0.26562,-0.51563 -0.32812,-1.21875 z m -0.14063,-3.71875 q -0.90625,0.35937 -2.73437,0.625 -1.03125,0.14062 -1.45313,0.32812 -0.42187,0.1875 -0.65625,0.54688 -0.23437,0.35937 -0.23437,0.79687 0,0.67188 0.50781,1.11719 0.50781,0.44531 1.47656,0.44531 0.96875,0 1.71875,-0.42969 0.75,-0.42968 1.10938,-1.14843 0.26562,-0.57813 0.26562,-1.67188 l 0,-0.60937 z m 4.04688,4.9375 0,-13.59375 1.67187,0 0,13.59375 -1.67187,0 z m 2.64062,3.78125 0,-1.21875 11.0625,0 0,1.21875 -11.0625,0 z m 18.34375,-7.39063 1.64063,0.21875 q -0.26563,1.6875 -1.375,2.64843 -1.10938,0.96095 -2.73438,0.96095 -2.01562,0 -3.24218,-1.32032 -1.22657,-1.32031 -1.22657,-3.78906 0,-1.59375 0.52344,-2.78907 0.52344,-1.1953 1.60938,-1.79687 1.08593,-0.60156 2.35156,-0.60156 1.60937,0 2.625,0.8125 1.01562,0.8125 1.3125,2.3125 l -1.625,0.25 q -0.23438,-1 -0.82813,-1.5 -0.59375,-0.5 -1.42187,-0.5 -1.26563,0 -2.05469,0.90625 -0.78906,0.90625 -0.78906,2.85938 0,1.98437 0.76562,2.8828 0.76563,0.89845 1.98438,0.89845 0.98437,0 1.64062,-0.60157 0.65625,-0.60156 0.84375,-1.85156 z m 2.26563,-1.3125 q 0,-2.73437 1.53125,-4.0625 1.26562,-1.09375 3.09375,-1.09375 2.03125,0 3.32031,1.33593 1.28906,1.33595 1.28906,3.6797 0,1.90625 -0.57031,2.99218 -0.57031,1.08594 -1.65625,1.6875 -1.08594,0.60157 -2.38281,0.60157 -2.0625,0 -3.34375,-1.32813 -1.28125,-1.32812 -1.28125,-3.8125 z m 1.71875,0 q 0,1.89063 0.82812,2.82813 0.82813,0.9375 2.07813,0.9375 1.25,0 2.07031,-0.94532 0.82031,-0.94531 0.82031,-2.88281 0,-1.82812 -0.82812,-2.76562 -0.82813,-0.9375 -2.0625,-0.9375 -1.25,0 -2.07813,0.9375 -0.82812,0.9375 -0.82812,2.82812 z m 9.28125,8.70313 0,-13.64063 1.53125,0 0,1.28125 q 0.53125,-0.75 1.21094,-1.125 0.67968,-0.375 1.63281,-0.375 1.26562,0 2.23437,0.64843 0.96875,0.64845 1.46094,1.83595 0.49219,1.1875 0.49219,2.59375 0,1.51562 -0.54688,2.72656 -0.54687,1.21094 -1.57812,1.85156 -1.03125,0.64063 -2.17188,0.64063 -0.84375,0 -1.50781,-0.35157 -0.66406,-0.35156 -1.08594,-0.88281 l 0,4.79688 -1.67187,0 z m 1.51562,-8.65625 q 0,1.90625 0.77344,2.8125 0.77344,0.90625 1.86719,0.90625 1.10937,0 1.89844,-0.9375 0.78906,-0.9375 0.78906,-2.92188 0,-1.875 -0.77344,-2.8125 -0.77344,-0.9375 -1.85156,-0.9375 -1.0625,0 -1.88281,1 -0.82032,1 -0.82032,2.89063 z m 8.78125,8.67187 -0.17187,-1.5625 q 0.54687,0.14063 0.95312,0.14063 0.54688,0 0.88282,-0.1875 0.33593,-0.1875 0.55468,-0.51563 0.15625,-0.25 0.5,-1.25 0.0469,-0.14062 0.15625,-0.40625 l -3.73437,-9.875 1.79687,0 2.04688,5.71875 q 0.40625,1.07813 0.71875,2.28125 0.28125,-1.15625 0.6875,-2.25 l 2.09375,-5.75 1.67187,0 -3.75,10.03125 q -0.59375,1.625 -0.9375,2.23438 -0.4375,0.82812 -1.01562,1.21093 -0.57813,0.38282 -1.375,0.38282 -0.48438,0 -1.07813,-0.20313 z"
     id="path52"
     style="fill:#000000;fill-rule:nonzero" />
  <path
     d="m 263.6558,367.5515 204.00005,0.7139"
     id="path54"
     style="stroke:#073763;stroke-width:2;stroke-linecap:butt;stroke-linejoin:round" />
  <path
     d="m 467.64432,371.56885 9.08768,-3.27167 -9.06458,-3.3352 z"
     id="path56"
     style="fill:#073763;fill-rule:evenodd;stroke:#073763;stroke-width:2;stroke-linecap:butt" />
  <path
     d="m 344.36993,365.41684 q -0.9375,0.79686 -1.79687,1.11719 -0.85938,0.32031 -1.84376,0.32031 -1.60937,0 -2.48437,-0.78906 -0.875,-0.78908 -0.875,-2.02344 0,-0.73438 0.32813,-1.32814 0.32812,-0.59374 0.85937,-0.9531 0.53125,-0.3594 1.20313,-0.5469 0.5,-0.1406 1.48437,-0.25 2.03125,-0.25 2.98437,-0.5781 0,-0.34376 0,-0.4375 0,-1.01564 -0.46874,-1.4375 -0.64063,-0.5625 -1.90626,-0.5625 -1.17187,0 -1.73437,0.40624 -0.5625,0.40626 -0.82813,1.46876 l -1.64062,-0.2344 q 0.23438,-1.04686 0.74219,-1.6875 0.50781,-0.6406 1.46875,-0.99217 0.96094,-0.35157 2.24218,-0.35157 1.26563,0 2.04688,0.29688 0.78125,0.29686 1.15625,0.75 0.375,0.45312 0.51563,1.14062 0.0937,0.42188 0.0937,1.53124 l 0,2.2344 q 0,2.3281 0.10157,2.9453 0.10156,0.6172 0.42969,1.1797 l -1.75,0 q -0.26563,-0.51564 -0.32813,-1.21876 z m -0.14063,-3.71874 q -0.90624,0.35936 -2.73437,0.625 -1.03125,0.1406 -1.45313,0.3281 -0.42187,0.1875 -0.65624,0.5469 -0.23438,0.35936 -0.23438,0.79686 0,0.67188 0.50782,1.11719 0.5078,0.44531 1.47656,0.44531 0.96874,0 1.71874,-0.42968 0.75,-0.42968 1.10938,-1.14844 0.26562,-0.57814 0.26562,-1.67188 l 0,-0.60936 z m 10.51563,1.3281 1.64063,0.21876 q -0.26563,1.6875 -1.375,2.64844 -1.10938,0.96094 -2.73438,0.96094 -2.01562,0 -3.24218,-1.32031 -1.22657,-1.32033 -1.22657,-3.78907 0,-1.59376 0.52344,-2.78906 0.52343,-1.1953 1.60938,-1.79687 1.08593,-0.60157 2.35155,-0.60157 1.60938,0 2.625,0.8125 1.01563,0.8125 1.3125,2.3125 l -1.625,0.25 q -0.23437,-1 -0.82812,-1.5 -0.59375,-0.5 -1.42188,-0.5 -1.26562,0 -2.05468,0.90624 -0.78906,0.90626 -0.78906,2.8594 0,1.98436 0.76562,2.8828 0.76562,0.89844 1.98438,0.89844 0.98437,0 1.64062,-0.60156 0.65625,-0.60158 0.84375,-1.85158 z m 2.90625,3.6094 0,-13.59376 1.67188,0 0,7.75 3.95312,-4.01564 2.15625,0 -3.76563,3.65626 4.14063,6.20314 -2.0625,0 -3.25,-5.03126 -1.17187,1.125 0,3.90626 -1.67188,0 z m 7.78125,3.78124 0,-1.21874 11.0625,0 0,1.21874 -11.0625,0 z m 18.35937,-7.39064 1.64063,0.21876 q -0.26563,1.6875 -1.375,2.64844 -1.10937,0.96094 -2.73437,0.96094 -2.01563,0 -3.24219,-1.32031 -1.22657,-1.32033 -1.22657,-3.78907 0,-1.59376 0.52345,-2.78906 0.52343,-1.1953 1.60937,-1.79687 1.08594,-0.60157 2.35156,-0.60157 1.60938,0 2.625,0.8125 1.01562,0.8125 1.3125,2.3125 l -1.625,0.25 q -0.23438,-1 -0.82812,-1.5 -0.59376,-0.5 -1.42188,-0.5 -1.26562,0 -2.05468,0.90624 -0.78907,0.90626 -0.78907,2.8594 0,1.98436 0.76563,2.8828 0.76562,0.89844 1.98437,0.89844 0.98437,0 1.64063,-0.60156 0.65624,-0.60158 0.84374,-1.85158 z m 2.26563,-1.3125 q 0,-2.73436 1.53125,-4.0625 1.26562,-1.09374 3.09375,-1.09374 2.03125,0 3.32032,1.33594 1.28905,1.33594 1.28905,3.6797 0,1.90624 -0.5703,2.99218 -0.57032,1.08592 -1.65625,1.6875 -1.08595,0.60156 -2.38282,0.60156 -2.0625,0 -3.34375,-1.32814 -1.28125,-1.3281 -1.28125,-3.8125 z m 1.71875,0 q 0,1.89064 0.82812,2.82814 0.82813,0.9375 2.07813,0.9375 1.25,0 2.07032,-0.94531 0.82031,-0.94533 0.82031,-2.88283 0,-1.8281 -0.82813,-2.7656 -0.82813,-0.9375 -2.0625,-0.9375 -1.25,0 -2.07813,0.9375 -0.82812,0.9375 -0.82812,2.8281 z m 9.28125,8.70314 0,-13.64064 1.53125,0 0,1.28126 q 0.53125,-0.75 1.21094,-1.125 0.67968,-0.375 1.63281,-0.375 1.26563,0 2.23437,0.64844 0.96876,0.64844 1.46095,1.83594 0.49218,1.1875 0.49218,2.59376 0,1.5156 -0.54687,2.72655 -0.54688,1.21095 -1.57813,1.85155 -1.03125,0.64064 -2.17187,0.64064 -0.84376,0 -1.50781,-0.35156 -0.66407,-0.35158 -1.08595,-0.88282 l 0,4.79688 -1.67187,0 z m 1.51563,-8.65624 q 0,1.90624 0.77344,2.8125 0.77343,0.90624 1.86718,0.90624 1.10938,0 1.89844,-0.9375 0.78906,-0.9375 0.78906,-2.92188 0,-1.875 -0.77343,-2.8125 -0.77345,-0.9375 -1.85157,-0.9375 -1.0625,0 -1.88281,1 -0.82031,1 -0.82031,2.89064 z m 8.78124,8.67186 -0.17187,-1.5625 q 0.54687,0.14064 0.95313,0.14064 0.54687,0 0.88281,-0.1875 0.33593,-0.1875 0.55469,-0.51564 0.15624,-0.25 0.5,-1.25 0.0469,-0.14062 0.15624,-0.40626 l -3.73437,-9.875 1.79687,0 2.04688,5.71876 q 0.40625,1.07814 0.71875,2.28124 0.28125,-1.15624 0.6875,-2.25 l 2.09375,-5.75 1.67188,0 -3.75,10.03126 q -0.59376,1.625 -0.9375,2.23438 -0.4375,0.82812 -1.01563,1.21094 -0.57813,0.38282 -1.375,0.38282 -0.48437,0 -1.07813,-0.20314 z"
     id="path58"
     style="fill:#000000;fill-rule:nonzero" />
  <path
     d="m 480.29202,320.45892 -204,0"
     id="path60"
     style="stroke:#073763;stroke-width:2;stroke-linecap:butt;stroke-linejoin:round" />
  <path
     d="m 276.29202,317.15546 -9.0762,3.30346 9.0762,3.30348 z"
     id="path62"
     style="fill:#073763;fill-rule:evenodd;stroke:#073763;stroke-width:2;stroke-linecap:butt" />
  <path
     d="m 318.59363,317.25034 0.23437,1.48436 q -0.70312,0.14064 -1.26562,0.14064 -0.90625,0 -1.40625,-0.28907 -0.5,-0.28907 -0.70313,-0.75 -0.20312,-0.46093 -0.20312,-1.97657 l 0,-5.65624 -1.23438,0 0,-1.3125 1.23438,0 0,-2.4375 1.65625,-1 0,3.4375 1.6875,0 0,1.3125 -1.6875,0 0,5.75 q 0,0.71874 0.0859,0.92188 0.0859,0.20312 0.28906,0.32812 0.20312,0.125 0.57812,0.125 0.26563,0 0.73438,-0.0781 z m 1.51562,1.5 0,-9.85938 1.5,0 0,1.5 q 0.57813,-1.04686 1.0625,-1.38281 0.48438,-0.33595 1.07813,-0.33595 0.84375,0 1.71875,0.5469 l -0.57813,1.54686 q -0.60937,-0.35936 -1.23437,-0.35936 -0.54688,0 -0.97656,0.3281 -0.42969,0.32814 -0.61719,0.90626 -0.28125,0.89064 -0.28125,1.95314 l 0,5.15624 -1.67188,0 z m 12.65625,-1.21874 q -0.9375,0.79686 -1.79687,1.11717 -0.85938,0.32033 -1.84375,0.32033 -1.60938,0 -2.48438,-0.78908 -0.875,-0.78906 -0.875,-2.02342 0,-0.7344 0.32813,-1.32814 0.32812,-0.59376 0.85937,-0.95312 0.53125,-0.35938 1.20313,-0.54688 0.5,-0.14062 1.48437,-0.25 2.03125,-0.25 2.98438,-0.57812 0,-0.34374 0,-0.4375 0,-1.01564 -0.46875,-1.4375 -0.64063,-0.5625 -1.90625,-0.5625 -1.17188,0 -1.73438,0.40626 -0.5625,0.40624 -0.82812,1.46874 l -1.64063,-0.23438 q 0.23438,-1.04686 0.74219,-1.6875 0.50781,-0.64062 1.46876,-0.99219 0.96093,-0.35157 2.24218,-0.35157 1.26562,0 2.04687,0.2969 0.78125,0.29686 1.15625,0.75 0.375,0.4531 0.51563,1.1406 0.0937,0.4219 0.0937,1.53126 l 0,2.23438 q 0,2.32812 0.10156,2.94531 0.10156,0.61719 0.42969,1.17969 l -1.75,0 Q 332.828,318.2347 332.7655,317.5316 z m -0.14062,-3.71876 q -0.90625,0.35936 -2.73438,0.625 -1.03125,0.14062 -1.45312,0.32812 -0.42188,0.1875 -0.65625,0.54688 -0.23438,0.35936 -0.23438,0.79686 0,0.6719 0.50782,1.1172 0.50781,0.4453 1.47656,0.4453 0.96875,0 1.71875,-0.42968 0.75,-0.42968 1.10937,-1.14842 0.26563,-0.57814 0.26563,-1.6719 l 0,-0.60936 z m 4.07812,4.9375 0,-9.85938 1.5,0 0,1.40624 q 1.09375,-1.625 3.14063,-1.625 0.89062,0 1.64062,0.32032 0.75,0.32032 1.11719,0.84375 0.36719,0.52343 0.52344,1.22657 0.0937,0.46876 0.0937,1.625 l 0,6.0625 -1.67188,0 0,-6 q 0,-1.01564 -0.19531,-1.52344 -0.19531,-0.5078 -0.69531,-0.8047 -0.5,-0.29686 -1.17188,-0.29686 -1.0625,0 -1.83593,0.67186 -0.77344,0.6719 -0.77344,2.57814 l 0,5.375 -1.67188,0 z m 9.70313,-2.9375 1.65625,-0.26564 q 0.14062,1 0.77344,1.52345 0.63281,0.52345 1.77343,0.52345 1.15625,0 1.71095,-0.46876 0.55468,-0.46874 0.55468,-1.09374 0,-0.5625 -0.48438,-0.89064 -0.34375,-0.21876 -1.70312,-0.5625 -1.84375,-0.46876 -2.55468,-0.80469 -0.71095,-0.33593 -1.07813,-0.9375 -0.36719,-0.60157 -0.36719,-1.32031 0,-0.65626 0.30469,-1.21876 0.30468,-0.5625 0.82031,-0.9375 0.39062,-0.28124 1.0625,-0.48436 0.67187,-0.20314 1.4375,-0.20314 1.17187,0 2.04687,0.33595 0.875,0.33595 1.28907,0.90625 0.41406,0.5703 0.57031,1.52344 l -1.625,0.21876 q -0.10938,-0.75 -0.64843,-1.1797 -0.53907,-0.4297 -1.50782,-0.4297 -1.15625,0 -1.64063,0.38282 -0.48437,0.38282 -0.48437,0.88282 0,0.32812 0.20312,0.59376 0.20313,0.2656 0.64063,0.4375 0.25,0.0937 1.46875,0.4375 1.76562,0.46874 2.46875,0.7656 0.70312,0.2969 1.10157,0.875 0.39843,0.57814 0.39843,1.4375 0,0.82814 -0.48438,1.57032 -0.48437,0.74218 -1.40625,1.14063 -0.92187,0.39845 -2.07812,0.39845 -1.92188,0 -2.92968,-0.7969 -1.00782,-0.79686 -1.28907,-2.35936 z m 16.4375,1.71876 q -0.9375,0.79686 -1.79688,1.11717 -0.85937,0.32033 -1.84375,0.32033 -1.60937,0 -2.48437,-0.78908 -0.875,-0.78906 -0.875,-2.02342 0,-0.7344 0.32812,-1.32814 0.32813,-0.59376 0.85938,-0.95312 0.53125,-0.35938 1.20312,-0.54688 0.5,-0.14062 1.48438,-0.25 2.03125,-0.25 2.98437,-0.57812 0,-0.34374 0,-0.4375 0,-1.01564 -0.46875,-1.4375 -0.64062,-0.5625 -1.90625,-0.5625 -1.17187,0 -1.73437,0.40626 -0.5625,0.40624 -0.82813,1.46874 l -1.64062,-0.23438 q 0.23437,-1.04686 0.74219,-1.6875 0.50781,-0.64062 1.46875,-0.99219 0.96093,-0.35157 2.24218,-0.35157 1.26563,0 2.04688,0.2969 0.78125,0.29686 1.15625,0.75 0.375,0.4531 0.51562,1.1406 0.0937,0.4219 0.0937,1.53126 l 0,2.23438 q 0,2.32812 0.10157,2.94531 0.10156,0.61719 0.42968,1.17969 l -1.75,0 q -0.26562,-0.51564 -0.32812,-1.21874 z m -0.14063,-3.71876 q -0.90625,0.35936 -2.73437,0.625 -1.03125,0.14062 -1.45313,0.32812 -0.42187,0.1875 -0.65625,0.54688 -0.23437,0.35936 -0.23437,0.79686 0,0.6719 0.50782,1.1172 0.5078,0.4453 1.47655,0.4453 0.96875,0 1.71875,-0.42968 0.75,-0.42968 1.10938,-1.14842 0.26562,-0.57814 0.26562,-1.6719 l 0,-0.60936 z m 10.51563,1.32812 1.64062,0.21874 q -0.26562,1.6875 -1.375,2.64845 -1.10937,0.96095 -2.73437,0.96095 -2.01563,0 -3.24218,-1.32033 -1.22657,-1.32031 -1.22657,-3.78907 0,-1.59374 0.52344,-2.78905 0.52343,-1.19531 1.60937,-1.79688 1.08594,-0.60157 2.35156,-0.60157 1.60938,0 2.625,0.8125 1.01563,0.8125 1.3125,2.3125 l -1.625,0.25 q -0.23437,-1 -0.82812,-1.5 -0.59375,-0.5 -1.42188,-0.5 -1.26562,0 -2.05468,0.90626 -0.78907,0.90624 -0.78907,2.85938 0,1.98436 0.76563,2.88281 0.76562,0.89845 1.98437,0.89845 0.98438,0 1.64063,-0.60158 0.65625,-0.60156 0.84375,-1.85156 z m 6.54687,2.10938 0.23438,1.48436 q -0.70313,0.14064 -1.26563,0.14064 -0.90625,0 -1.40625,-0.28907 -0.5,-0.28907 -0.70312,-0.75 -0.20313,-0.46093 -0.20313,-1.97657 l 0,-5.65624 -1.23437,0 0,-1.3125 1.23437,0 0,-2.4375 1.65625,-1 0,3.4375 1.6875,0 0,1.3125 -1.6875,0 0,5.75 q 0,0.71874 0.0859,0.92188 0.0859,0.20312 0.28906,0.32812 0.20313,0.125 0.57813,0.125 0.26562,0 0.73437,-0.0781 z m 1.54688,-10.1875 0,-1.90624 1.67187,0 0,1.90624 -1.67187,0 z m 0,11.6875 0,-9.85938 1.67187,0 0,9.85938 -1.67187,0 z m 3.5,-4.92188 q 0,-2.73436 1.53125,-4.0625 1.26562,-1.09376 3.09375,-1.09376 2.03125,0 3.32032,1.33595 1.28905,1.33595 1.28905,3.67969 0,1.90626 -0.57031,2.99218 -0.57031,1.08594 -1.65624,1.6875 -1.08595,0.60158 -2.38282,0.60158 -2.0625,0 -3.34375,-1.32814 -1.28125,-1.32812 -1.28125,-3.8125 z m 1.71875,0 q 0,1.89064 0.82812,2.82814 0.82813,0.9375 2.07813,0.9375 1.25,0 2.07032,-0.94533 0.8203,-0.94531 0.8203,-2.88281 0,-1.82812 -0.82812,-2.76562 -0.82813,-0.9375 -2.0625,-0.9375 -1.25,0 -2.07813,0.9375 -0.82812,0.9375 -0.82812,2.82812 z m 9.28125,4.92188 0,-9.85938 1.5,0 0,1.40624 q 1.09375,-1.625 3.14062,-1.625 0.89063,0 1.64063,0.32032 0.75,0.32032 1.11719,0.84375 0.36718,0.52343 0.52343,1.22657 0.0937,0.46876 0.0937,1.625 l 0,6.0625 -1.67187,0 0,-6 q 0,-1.01564 -0.19531,-1.52344 -0.19532,-0.5078 -0.69532,-0.8047 -0.5,-0.29686 -1.17187,-0.29686 -1.0625,0 -1.83593,0.67186 -0.77345,0.6719 -0.77345,2.57814 l 0,5.375 -1.67187,0 z m 14.45312,0 3.59375,-5.125 -3.32812,-4.73438 2.09375,0 1.51562,2.3125 q 0.42188,0.65624 0.67188,1.10938 0.42187,-0.60938 0.76562,-1.09374 l 1.65625,-2.32814 1.98438,0 -3.39063,4.64064 3.65625,5.21874 -2.04687,0 -2.03125,-3.0625 -0.53125,-0.82814 -2.59375,3.89064 -2.01563,0 z m 15.82813,0 0,-13.59374 1.84375,0 7.14062,10.67186 0,-10.67186 1.71875,0 0,13.59374 -1.84375,0 -7.14062,-10.6875 0,10.6875 -1.71875,0 z"
     id="path64"
     style="fill:#000000;fill-rule:nonzero" />
  <path
     d="m 47.88527,416.4172 183.77954,0 0,32.25196 -183.77954,0 z"
     id="path66"
     style="fill:#cfe2f3;fill-rule:nonzero;stroke:#073763;stroke-width:2;stroke-linecap:butt;stroke-linejoin:round" />
  <path
     d="m 108.60414,435.2974 1.64063,0.21874 q -0.26563,1.6875 -1.375,2.64844 -1.10938,0.96094 -2.73438,0.96094 -2.01562,0 -3.24219,-1.32032 -1.22656,-1.3203 -1.22656,-3.78906 0,-1.59374 0.52344,-2.78906 0.52344,-1.19531 1.60937,-1.79688 1.08594,-0.60156 2.35157,-0.60156 1.60937,0 2.625,0.8125 1.01562,0.8125 1.3125,2.3125 l -1.625,0.25 q -0.23438,-1 -0.82813,-1.5 -0.59375,-0.5 -1.42187,-0.5 -1.26563,0 -2.05469,0.90626 -0.78906,0.90624 -0.78906,2.85937 0,1.98437 0.76562,2.88281 0.76563,0.89844 1.98438,0.89844 0.98437,0 1.64062,-0.60156 0.65625,-0.60156 0.84375,-1.85156 z m 2.26563,-1.3125 q 0,-2.73438 1.53125,-4.0625 1.26562,-1.09376 3.09375,-1.09376 2.03125,0 3.32031,1.33594 1.28906,1.33594 1.28906,3.67969 0,1.90625 -0.57031,2.99219 -0.57031,1.08594 -1.65625,1.6875 -1.08594,0.60156 -2.38281,0.60156 -2.0625,0 -3.34375,-1.32812 -1.28125,-1.32813 -1.28125,-3.8125 z m 1.71875,0 q 0,1.89062 0.82812,2.82812 0.82813,0.9375 2.07813,0.9375 1.25,0 2.07031,-0.94532 0.82031,-0.9453 0.82031,-2.8828 0,-1.82813 -0.82812,-2.76563 -0.82813,-0.9375 -2.0625,-0.9375 -1.25,0 -2.07813,0.9375 -0.82812,0.9375 -0.82812,2.82813 z m 9.29687,4.92187 0,-9.85937 1.5,0 0,1.40624 q 1.09375,-1.625 3.14063,-1.625 0.89062,0 1.64062,0.32032 0.75,0.32031 1.11719,0.84374 0.36719,0.52344 0.52344,1.22657 0.0937,0.46875 0.0937,1.625 l 0,6.0625 -1.67188,0 0,-6 q 0,-1.01563 -0.19531,-1.52344 -0.19531,-0.50781 -0.69531,-0.80469 -0.5,-0.29687 -1.17188,-0.29687 -1.0625,0 -1.83594,0.67187 -0.77343,0.67188 -0.77343,2.57813 l 0,5.375 -1.67188,0 z m 10.375,0 0,-9.85937 1.5,0 0,1.40624 q 1.09375,-1.625 3.14063,-1.625 0.89062,0 1.64062,0.32032 0.75,0.32031 1.11719,0.84374 0.36719,0.52344 0.52344,1.22657 0.0937,0.46875 0.0937,1.625 l 0,6.0625 -1.67188,0 0,-6 q 0,-1.01563 -0.19531,-1.52344 -0.19531,-0.50781 -0.69531,-0.80469 -0.5,-0.29687 -1.17188,-0.29687 -1.0625,0 -1.83594,0.67187 -0.77343,0.67188 -0.77343,2.57813 l 0,5.375 -1.67188,0 z m 17.125,-3.17187 1.71875,0.21874 q -0.40625,1.5 -1.50781,2.33594 -1.10156,0.83594 -2.82031,0.83594 -2.15625,0 -3.42188,-1.32812 -1.26562,-1.32813 -1.26562,-3.73438 0,-2.48438 1.27343,-3.85938 1.27344,-1.375 3.32032,-1.375 1.98437,0 3.23437,1.34376 1.25,1.34374 1.25,3.79687 0,0.14063 -0.0156,0.4375 l -7.34375,0 q 0.0937,1.625 0.92187,2.48437 0.82813,0.85938 2.0625,0.85938 0.90625,0 1.55469,-0.47656 0.64844,-0.47656 1.03906,-1.53906 z m -5.48437,-2.70313 5.5,0 q -0.10938,-1.23437 -0.625,-1.85937 -0.79688,-0.96876 -2.07813,-0.96876 -1.14062,0 -1.92969,0.77344 -0.78906,0.77344 -0.86718,2.05469 z m 15.54687,2.26563 1.64063,0.21874 q -0.26563,1.6875 -1.375,2.64844 -1.10938,0.96094 -2.73438,0.96094 -2.01562,0 -3.24219,-1.32032 -1.22656,-1.3203 -1.22656,-3.78906 0,-1.59374 0.52344,-2.78906 0.52344,-1.19531 1.60937,-1.79688 1.08594,-0.60156 2.35157,-0.60156 1.60937,0 2.625,0.8125 1.01562,0.8125 1.3125,2.3125 l -1.625,0.25 q -0.23438,-1 -0.82813,-1.5 -0.59375,-0.5 -1.42187,-0.5 -1.26563,0 -2.05469,0.90626 -0.78906,0.90624 -0.78906,2.85937 0,1.98437 0.76562,2.88281 0.76563,0.89844 1.98438,0.89844 0.98437,0 1.64062,-0.60156 0.65625,-0.60156 0.84375,-1.85156 z m 6.54688,2.10937 0.23437,1.48437 q -0.70312,0.14063 -1.26562,0.14063 -0.90625,0 -1.40625,-0.28907 -0.5,-0.28906 -0.70313,-0.75 -0.20312,-0.46093 -0.20312,-1.97656 l 0,-5.65624 -1.23438,0 0,-1.3125 1.23438,0 0,-2.4375 1.65625,-1 0,3.4375 1.6875,0 0,1.3125 -1.6875,0 0,5.75 q 0,0.71874 0.0859,0.92187 0.0859,0.20313 0.28907,0.32813 0.20312,0.125 0.57812,0.125 0.26563,0 0.73438,-0.0781 z m 8.26562,-1.67187 1.71875,0.21874 q -0.40625,1.5 -1.50781,2.33594 -1.10156,0.83594 -2.82031,0.83594 -2.15625,0 -3.42188,-1.32812 -1.26562,-1.32813 -1.26562,-3.73438 0,-2.48438 1.27343,-3.85938 1.27344,-1.375 3.32032,-1.375 1.98437,0 3.23437,1.34376 1.25,1.34374 1.25,3.79687 0,0.14063 -0.0156,0.4375 l -7.34375,0 q 0.0937,1.625 0.92187,2.48437 0.82813,0.85938 2.0625,0.85938 0.90625,0 1.55469,-0.47656 0.64844,-0.47656 1.03906,-1.53906 z m -5.48437,-2.70313 5.5,0 q -0.10938,-1.23437 -0.625,-1.85937 -0.79688,-0.96876 -2.07813,-0.96876 -1.14062,0 -1.92969,0.77344 -0.78906,0.77344 -0.86718,2.05469 z m 15.5,5.875 0,-1.25 q -0.9375,1.46875 -2.75,1.46875 -1.17188,0 -2.16407,-0.64844 -0.99218,-0.64844 -1.53125,-1.8125 -0.53906,-1.16406 -0.53906,-2.67968 0,-1.46876 0.49219,-2.67188 0.49219,-1.20312 1.46875,-1.84375 0.97656,-0.64063 2.19531,-0.64063 0.89063,0 1.58594,0.375 0.69531,0.375 1.13281,0.98438 l 0,-4.875 1.65625,0 0,13.59375 -1.54687,0 z m -5.28125,-4.92187 q 0,1.89062 0.80468,2.82812 0.80469,0.9375 1.88282,0.9375 1.09375,0 1.85937,-0.89062 0.76563,-0.89063 0.76563,-2.73438 0,-2.01562 -0.78125,-2.96094 -0.78125,-0.94531 -1.92188,-0.94531 -1.10937,0 -1.85937,0.90625 -0.75,0.90625 -0.75,2.85938 z"
     id="path68"
     style="fill:#000000;fill-rule:nonzero" />
  <path
     d="m 487.91653,480.25034 -204,0"
     id="path70"
     style="stroke:#073763;stroke-width:2;stroke-linecap:butt;stroke-linejoin:round" />
  <path
     d="m 283.91653,476.94687 -9.0762,3.30347 9.0762,3.30346 z"
     id="path72"
     style="fill:#073763;fill-rule:evenodd;stroke:#073763;stroke-width:2;stroke-linecap:butt" />
  <path
     d="m 343.15088,468.6558 0.23437,1.48437 q -0.70312,0.14063 -1.26562,0.14063 -0.90625,0 -1.40625,-0.28907 -0.5,-0.28906 -0.70313,-0.75 -0.20312,-0.46093 -0.20312,-1.97656 l 0,-5.65625 -1.23438,0 0,-1.3125 1.23438,0 0,-2.4375 1.65625,-1 0,3.4375 1.6875,0 0,1.3125 -1.6875,0 0,5.75 q 0,0.71875 0.0859,0.92188 0.0859,0.20312 0.28906,0.32812 0.20312,0.125 0.57812,0.125 0.26563,0 0.73438,-0.0781 z m 1.51562,1.5 0,-9.85938 1.5,0 0,1.5 q 0.57813,-1.04688 1.0625,-1.38282 0.48438,-0.33593 1.07813,-0.33593 0.84375,0 1.71875,0.54687 l -0.57813,1.54688 q -0.60937,-0.35938 -1.23437,-0.35938 -0.54688,0 -0.97656,0.32813 -0.42969,0.32813 -0.61719,0.90625 -0.28125,0.89062 -0.28125,1.95312 l 0,5.15626 -1.67188,0 z m 12.67188,-1.21876 q -0.9375,0.79688 -1.79688,1.11719 -0.85937,0.32031 -1.84375,0.32031 -1.60937,0 -2.48437,-0.78906 -0.875,-0.78906 -0.875,-2.02344 0,-0.73437 0.32812,-1.32812 0.32813,-0.59375 0.85938,-0.95312 0.53125,-0.35938 1.20312,-0.54688 0.5,-0.14062 1.48438,-0.25 2.03125,-0.25 2.98437,-0.57812 0,-0.34376 0,-0.4375 0,-1.01563 -0.46875,-1.4375 -0.64062,-0.5625 -1.90625,-0.5625 -1.17187,0 -1.73437,0.40624 -0.5625,0.40626 -0.82813,1.46876 l -1.64062,-0.23438 q 0.23437,-1.04688 0.74219,-1.6875 0.50781,-0.64062 1.46875,-0.99219 0.96093,-0.35156 2.24218,-0.35156 1.26563,0 2.04688,0.29687 0.78125,0.29688 1.15625,0.75 0.375,0.45313 0.51562,1.14063 0.0937,0.42187 0.0937,1.53125 l 0,2.23438 q 0,2.32812 0.10157,2.9453 0.10156,0.6172 0.42968,1.1797 l -1.75,0 q -0.26562,-0.51563 -0.32812,-1.21876 z m -0.14063,-3.71874 q -0.90625,0.35937 -2.73437,0.625 -1.03125,0.14062 -1.45313,0.32812 -0.42187,0.1875 -0.65625,0.54688 -0.23437,0.35937 -0.23437,0.79687 0,0.67187 0.50781,1.11718 0.50781,0.44532 1.47656,0.44532 0.96875,0 1.71875,-0.42969 0.75,-0.42968 1.10938,-1.14844 0.26562,-0.57812 0.26562,-1.67187 l 0,-0.60937 z m 4.07813,4.9375 0,-9.85938 1.5,0 0,1.40625 q 1.09375,-1.625 3.14062,-1.625 0.89063,0 1.64063,0.32031 0.75,0.32032 1.11719,0.84375 0.36718,0.52344 0.52343,1.22657 0.0937,0.46874 0.0937,1.625 l 0,6.0625 -1.67187,0 0,-6 q 0,-1.01563 -0.19531,-1.52345 -0.19532,-0.50781 -0.69532,-0.80468 -0.5,-0.29687 -1.17187,-0.29687 -1.0625,0 -1.83593,0.67187 -0.77345,0.67187 -0.77345,2.57813 l 0,5.375 -1.67187,0 z m 9.70312,-2.9375 1.65625,-0.26563 q 0.14063,1 0.77345,1.52343 0.6328,0.52344 1.77343,0.52344 1.15625,0 1.71094,-0.46874 0.55468,-0.46876 0.55468,-1.09376 0,-0.5625 -0.48437,-0.89062 -0.34375,-0.21875 -1.70313,-0.5625 -1.84375,-0.46875 -2.55468,-0.80469 -0.71094,-0.33593 -1.07813,-0.9375 -0.36719,-0.60156 -0.36719,-1.32031 0,-0.65625 0.30469,-1.21875 0.30469,-0.5625 0.82031,-0.9375 0.39063,-0.28125 1.0625,-0.48437 0.67188,-0.20313 1.4375,-0.20313 1.17188,0 2.04688,0.33593 0.875,0.33594 1.28907,0.90625 0.41405,0.57032 0.5703,1.52345 l -1.625,0.21874 q -0.10937,-0.75 -0.64843,-1.17969 -0.53907,-0.42968 -1.50782,-0.42968 -1.15625,0 -1.64062,0.38281 -0.48438,0.38282 -0.48438,0.88282 0,0.32812 0.20313,0.59374 0.20312,0.26563 0.64062,0.4375 0.25,0.0938 1.46875,0.4375 1.76563,0.46876 2.46875,0.76563 0.70313,0.29687 1.10157,0.875 0.39843,0.57813 0.39843,1.4375 0,0.82813 -0.48437,1.57031 -0.48438,0.74219 -1.40625,1.14062 -0.92188,0.39844 -2.07813,0.39844 -1.92187,0 -2.92968,-0.79687 -1.00782,-0.79687 -1.28907,-2.35937 z m 16.4375,1.71874 q -0.9375,0.79688 -1.79687,1.11719 -0.85938,0.32031 -1.84375,0.32031 -1.60938,0 -2.48438,-0.78906 -0.875,-0.78906 -0.875,-2.02344 0,-0.73437 0.32813,-1.32812 0.32812,-0.59375 0.85937,-0.95312 0.53125,-0.35938 1.20313,-0.54688 0.5,-0.14062 1.48437,-0.25 2.03125,-0.25 2.98438,-0.57812 0,-0.34376 0,-0.4375 0,-1.01563 -0.46875,-1.4375 -0.64063,-0.5625 -1.90625,-0.5625 -1.17188,0 -1.73438,0.40624 -0.5625,0.40626 -0.82812,1.46876 l -1.64063,-0.23438 q 0.23438,-1.04688 0.74219,-1.6875 0.50781,-0.64062 1.46876,-0.99219 0.96093,-0.35156 2.24218,-0.35156 1.26562,0 2.04687,0.29687 0.78125,0.29688 1.15625,0.75 0.375,0.45313 0.51563,1.14063 0.0937,0.42187 0.0937,1.53125 l 0,2.23438 q 0,2.32812 0.10156,2.9453 0.10156,0.6172 0.42969,1.1797 l -1.75,0 q -0.26563,-0.51563 -0.32813,-1.21876 z m -0.14062,-3.71874 q -0.90625,0.35937 -2.73438,0.625 -1.03125,0.14062 -1.45312,0.32812 -0.42188,0.1875 -0.65625,0.54688 -0.23438,0.35937 -0.23438,0.79687 0,0.67187 0.50782,1.11718 0.50781,0.44532 1.47656,0.44532 0.96875,0 1.71875,-0.42969 0.75,-0.42968 1.10937,-1.14844 0.26563,-0.57812 0.26563,-1.67187 l 0,-0.60937 z m 10.51562,1.32812 1.64063,0.21875 q -0.26563,1.6875 -1.375,2.64843 -1.10938,0.96094 -2.73438,0.96094 -2.01562,0 -3.24218,-1.32031 -1.22657,-1.32031 -1.22657,-3.78906 0,-1.59375 0.52344,-2.78907 0.52344,-1.1953 1.60938,-1.79687 1.08593,-0.60156 2.35156,-0.60156 1.60937,0 2.625,0.8125 1.01562,0.8125 1.3125,2.3125 l -1.625,0.25 q -0.23438,-1 -0.82813,-1.5 -0.59375,-0.5 -1.42187,-0.5 -1.26563,0 -2.05468,0.90625 -0.78907,0.90625 -0.78907,2.85938 0,1.98437 0.76562,2.8828 0.76563,0.89844 1.98438,0.89844 0.98437,0 1.64062,-0.60156 0.65625,-0.60156 0.84375,-1.85156 z m 6.54688,2.10938 0.23437,1.48437 q -0.70312,0.14063 -1.26562,0.14063 -0.90625,0 -1.40625,-0.28907 -0.5,-0.28906 -0.70313,-0.75 -0.20312,-0.46093 -0.20312,-1.97656 l 0,-5.65625 -1.23438,0 0,-1.3125 1.23438,0 0,-2.4375 1.65625,-1 0,3.4375 1.6875,0 0,1.3125 -1.6875,0 0,5.75 q 0,0.71875 0.0859,0.92188 0.0859,0.20312 0.28906,0.32812 0.20312,0.125 0.57812,0.125 0.26563,0 0.73438,-0.0781 z m 1.53125,-10.1875 0,-1.90626 1.67187,0 0,1.90626 -1.67187,0 z m 0,11.6875 0,-9.85938 1.67187,0 0,9.85938 -1.67187,0 z m 3.51562,-4.92188 q 0,-2.73438 1.53125,-4.0625 1.26563,-1.09375 3.09375,-1.09375 2.03125,0 3.32032,1.33593 1.28906,1.33594 1.28906,3.6797 0,1.90624 -0.57031,2.99218 -0.57032,1.08594 -1.65625,1.6875 -1.08594,0.60156 -2.38282,0.60156 -2.0625,0 -3.34375,-1.32812 -1.28125,-1.32812 -1.28125,-3.8125 z m 1.71875,0 q 0,1.89062 0.82813,2.82812 0.82812,0.9375 2.07812,0.9375 1.25,0 2.07032,-0.94531 0.82031,-0.94531 0.82031,-2.88281 0,-1.82812 -0.82813,-2.76562 -0.82812,-0.9375 -2.0625,-0.9375 -1.25,0 -2.07812,0.9375 -0.82813,0.9375 -0.82813,2.82812 z m 9.28125,4.92188 0,-9.85938 1.5,0 0,1.40625 q 1.09375,-1.625 3.14063,-1.625 0.89062,0 1.64062,0.32031 0.75,0.32032 1.1172,0.84375 0.36718,0.52344 0.52343,1.22657 0.0937,0.46874 0.0937,1.625 l 0,6.0625 -1.67188,0 0,-6 q 0,-1.01563 -0.1953,-1.52345 -0.19532,-0.50781 -0.69532,-0.80468 -0.5,-0.29687 -1.17188,-0.29687 -1.0625,0 -1.83593,0.67187 -0.77344,0.67187 -0.77344,2.57813 l 0,5.375 -1.67188,0 z"
     id="path74"
     style="fill:#000000;fill-rule:nonzero" />
  <path
     d="m 271.9374,576.2503 203.6536,0.3272"
     id="path76"
     style="stroke:#073763;stroke-width:2;stroke-linecap:butt;stroke-linejoin:round" />
  <path
     d="m 475.5857,579.881 9.08148,-3.2889 -9.0709,-3.31805 z"
     id="path78"
     style="fill:#073763;fill-rule:evenodd;stroke:#073763;stroke-width:2;stroke-linecap:butt" />
  <path
     d="m 343.06744,565.3129 0.23438,1.4844 q -0.70312,0.1406 -1.26562,0.1406 -0.90626,0 -1.40626,-0.28904 -0.5,-0.28906 -0.70312,-0.75 -0.20312,-0.46096 -0.20312,-1.97656 l 0,-5.65625 -1.23438,0 0,-1.3125 1.23438,0 0,-2.4375 1.65624,-1 0,3.4375 1.6875,0 0,1.3125 -1.6875,0 0,5.75 q 0,0.71875 0.0859,0.92185 0.0859,0.20315 0.28906,0.32815 0.20313,0.125 0.57813,0.125 0.26563,0 0.73437,-0.0781 z m 1.51563,1.5 0,-9.85935 1.5,0 0,1.5 q 0.57813,-1.04685 1.0625,-1.38281 0.48437,-0.33594 1.07813,-0.33594 0.84374,0 1.71874,0.5469 l -0.57812,1.54685 q -0.60938,-0.35935 -1.23438,-0.35935 -0.54687,0 -0.97656,0.3281 -0.42968,0.3281 -0.61718,0.90625 -0.28126,0.89065 -0.28126,1.95315 l 0,5.1562 -1.67187,0 z m 12.67187,-1.2187 q -0.9375,0.79685 -1.79687,1.11716 -0.85937,0.32034 -1.84375,0.32034 -1.60938,0 -2.48438,-0.7891 -0.875,-0.78905 -0.875,-2.0234 0,-0.7344 0.32813,-1.32815 0.32813,-0.59375 0.85937,-0.95315 0.53126,-0.35935 1.20313,-0.54685 0.5,-0.14065 1.48437,-0.25 2.03126,-0.25 2.98438,-0.57815 0,-0.3437 0,-0.4375 0,-1.0156 -0.46875,-1.4375 -0.64063,-0.5625 -1.90625,-0.5625 -1.17188,0 -1.73438,0.4063 -0.5625,0.4062 -0.82812,1.4687 l -1.64062,-0.23435 q 0.23437,-1.04685 0.74218,-1.6875 0.50782,-0.64065 1.46875,-0.99219 0.96094,-0.35156 2.24219,-0.35156 1.26562,0 2.04688,0.2969 0.78124,0.29685 1.15624,0.75 0.375,0.4531 0.51563,1.1406 0.0937,0.4219 0.0937,1.53125 l 0,2.23435 q 0,2.32815 0.10156,2.94534 0.10156,0.61716 0.42969,1.17966 l -1.75,0 q -0.26563,-0.5156 -0.32813,-1.2187 z m -0.14062,-3.7188 q -0.90625,0.3594 -2.73438,0.625 -1.03124,0.14065 -1.45312,0.32815 -0.42188,0.1875 -0.65625,0.54685 -0.23437,0.3594 -0.23437,0.7969 0,0.6719 0.5078,1.1172 0.50782,0.4453 1.47657,0.4453 0.96875,0 1.71875,-0.4297 0.75,-0.4297 1.10938,-1.1484 0.26562,-0.57815 0.26562,-1.6719 l 0,-0.6094 z m 4.07812,4.9375 0,-9.85935 1.5,0 0,1.40625 q 1.09376,-1.625 3.14063,-1.625 0.89063,0 1.64063,0.3203 0.75,0.3203 1.11718,0.84376 0.36719,0.52344 0.52344,1.22654 0.0937,0.4688 0.0937,1.625 l 0,6.0625 -1.67187,0 0,-6 q 0,-1.0156 -0.19532,-1.5234 -0.19531,-0.5078 -0.69531,-0.8047 -0.5,-0.2969 -1.17187,-0.2969 -1.0625,0 -1.83594,0.6719 -0.77344,0.6719 -0.77344,2.5781 l 0,5.375 -1.67188,0 z m 9.70313,-2.9375 1.65625,-0.2656 q 0.14062,1 0.77344,1.52344 0.63281,0.52346 1.77344,0.52346 1.15624,0 1.71093,-0.4688 0.55469,-0.4687 0.55469,-1.0937 0,-0.5625 -0.48438,-0.89065 -0.34374,-0.21875 -1.70312,-0.5625 -1.84375,-0.46875 -2.55469,-0.80469 -0.71093,-0.33596 -1.07813,-0.9375 -0.36718,-0.60156 -0.36718,-1.32031 0,-0.65625 0.30468,-1.21875 0.3047,-0.5625 0.82032,-0.9375 0.39062,-0.28125 1.0625,-0.4844 0.67188,-0.2031 1.4375,-0.2031 1.17188,0 2.04688,0.33594 0.875,0.33596 1.28906,0.90626 0.41406,0.5703 0.57031,1.5234 l -1.625,0.2188 q -0.10937,-0.75 -0.64844,-1.1797 -0.53906,-0.4297 -1.50781,-0.4297 -1.15625,0 -1.64062,0.3828 -0.48438,0.3828 -0.48438,0.8828 0,0.32815 0.20312,0.5938 0.20313,0.2656 0.64063,0.4375 0.25,0.0937 1.46875,0.4375 1.76562,0.4687 2.46875,0.7656 0.70313,0.2969 1.10156,0.875 0.39844,0.5781 0.39844,1.4375 0,0.8281 -0.48437,1.5703 -0.48438,0.7422 -1.40626,1.14064 -0.92187,0.39846 -2.07812,0.39846 -1.92188,0 -2.92969,-0.7969 -1.00781,-0.7969 -1.28906,-2.3594 z m 16.4375,1.7188 q -0.9375,0.79685 -1.79687,1.11716 -0.85938,0.32034 -1.84376,0.32034 -1.60937,0 -2.48437,-0.7891 -0.875,-0.78905 -0.875,-2.0234 0,-0.7344 0.32813,-1.32815 0.32812,-0.59375 0.85937,-0.95315 0.53125,-0.35935 1.20313,-0.54685 0.5,-0.14065 1.48437,-0.25 2.03125,-0.25 2.98437,-0.57815 0,-0.3437 0,-0.4375 0,-1.0156 -0.46874,-1.4375 -0.64063,-0.5625 -1.90626,-0.5625 -1.17187,0 -1.73437,0.4063 -0.5625,0.4062 -0.82813,1.4687 l -1.64062,-0.23435 q 0.23438,-1.04685 0.74218,-1.6875 0.50782,-0.64065 1.46876,-0.99219 0.96094,-0.35156 2.24218,-0.35156 1.26563,0 2.04688,0.2969 0.78125,0.29685 1.15625,0.75 0.375,0.4531 0.51563,1.1406 0.0937,0.4219 0.0937,1.53125 l 0,2.23435 q 0,2.32815 0.10156,2.94534 0.10157,0.61716 0.4297,1.17966 l -1.75,0 q -0.26563,-0.5156 -0.32813,-1.2187 z m -0.14063,-3.7188 q -0.90624,0.3594 -2.73437,0.625 -1.03125,0.14065 -1.45313,0.32815 -0.42187,0.1875 -0.65624,0.54685 -0.23438,0.3594 -0.23438,0.7969 0,0.6719 0.50781,1.1172 0.50781,0.4453 1.47657,0.4453 0.96874,0 1.71874,-0.4297 0.75,-0.4297 1.10938,-1.1484 0.26562,-0.57815 0.26562,-1.6719 l 0,-0.6094 z m 10.51563,1.32815 1.64063,0.21875 q -0.26563,1.6875 -1.375,2.64844 -1.10938,0.96096 -2.73438,0.96096 -2.01562,0 -3.24219,-1.32034 -1.22656,-1.32031 -1.22656,-3.78906 0,-1.59375 0.52343,-2.78906 0.52344,-1.19534 1.60938,-1.79688 1.08594,-0.60156 2.35156,-0.60156 1.60938,0 2.625,0.8125 1.01563,0.8125 1.3125,2.3125 l -1.625,0.25 q -0.23437,-1 -0.82812,-1.5 -0.59375,-0.5 -1.42188,-0.5 -1.26562,0 -2.05468,0.90625 -0.78906,0.90625 -0.78906,2.85935 0,1.9844 0.76562,2.88284 0.76562,0.89846 1.98438,0.89846 0.98437,0 1.64062,-0.6016 0.65625,-0.60155 0.84375,-1.85155 z m 6.54687,2.10935 0.23438,1.4844 q -0.70312,0.1406 -1.26562,0.1406 -0.90626,0 -1.40626,-0.28904 -0.5,-0.28906 -0.70312,-0.75 -0.20312,-0.46096 -0.20312,-1.97656 l 0,-5.65625 -1.23438,0 0,-1.3125 1.23438,0 0,-2.4375 1.65624,-1 0,3.4375 1.6875,0 0,1.3125 -1.6875,0 0,5.75 q 0,0.71875 0.0859,0.92185 0.0859,0.20315 0.28906,0.32815 0.20313,0.125 0.57813,0.125 0.26563,0 0.73437,-0.0781 z m 1.53126,-10.1875 0,-1.9062 1.67187,0 0,1.9062 -1.67187,0 z m 0,11.6875 0,-9.85935 1.67187,0 0,9.85935 -1.67187,0 z m 3.51562,-4.92185 q 0,-2.73435 1.53125,-4.0625 1.26563,-1.09375 3.09375,-1.09375 2.03125,0 3.32031,1.33594 1.28907,1.33596 1.28907,3.67966 0,1.9063 -0.57032,2.9922 -0.57031,1.08595 -1.65625,1.6875 -1.08593,0.6016 -2.38281,0.6016 -2.0625,0 -3.34375,-1.32815 -1.28125,-1.32815 -1.28125,-3.8125 z m 1.71875,0 q 0,1.89065 0.82813,2.82815 0.82812,0.9375 2.07812,0.9375 1.25,0 2.07031,-0.94534 0.82031,-0.94531 0.82031,-2.88281 0,-1.82815 -0.82812,-2.76565 -0.82812,-0.9375 -2.0625,-0.9375 -1.25,0 -2.07812,0.9375 -0.82813,0.9375 -0.82813,2.82815 z m 9.28125,4.92185 0,-9.85935 1.5,0 0,1.40625 q 1.09375,-1.625 3.14062,-1.625 0.89063,0 1.64063,0.3203 0.75,0.3203 1.11719,0.84376 0.36718,0.52344 0.52344,1.22654 0.0937,0.4688 0.0937,1.625 l 0,6.0625 -1.67187,0 0,-6 q 0,-1.0156 -0.19531,-1.5234 -0.19532,-0.5078 -0.69532,-0.8047 -0.5,-0.2969 -1.17187,-0.2969 -1.0625,0 -1.83594,0.6719 -0.77343,0.6719 -0.77343,2.5781 l 0,5.375 -1.67188,0 z"
     id="path80"
     style="fill:#000000;fill-rule:nonzero" />
  <path
     d="m 488.25034,608.0522 -204,0"
     id="path82"
     style="stroke:#073763;stroke-width:2;stroke-linecap:butt;stroke-linejoin:round" />
  <path
     d="m 284.25034,604.7487 -9.07621,3.3035 9.07621,3.30345 z"
     id="path84"
     style="fill:#073763;fill-rule:evenodd;stroke:#073763;stroke-width:2;stroke-linecap:butt" />
  <path
     d="m 339.41727,598.9068 0,-9.8594 1.5,0 0,1.5 q 0.57813,-1.04685 1.0625,-1.3828 0.48437,-0.3359 1.07813,-0.3359 0.84374,0 1.71874,0.54685 l -0.57812,1.54685 q -0.60938,-0.35935 -1.23438,-0.35935 -0.54687,0 -0.97656,0.32815 -0.42968,0.3281 -0.61718,0.9062 -0.28126,0.89065 -0.28126,1.95315 l 0,5.15625 -1.67187,0 z m 12.96875,-3.1719 1.71875,0.2188 q -0.40625,1.5 -1.50782,2.3359 -1.10155,0.83595 -2.82031,0.83595 -2.15624,0 -3.42187,-1.32815 -1.26563,-1.3281 -1.26563,-3.73435 0,-2.48435 1.27344,-3.85935 1.27344,-1.375 3.32032,-1.375 1.98437,0 3.23437,1.3437 1.25,1.3438 1.25,3.7969 0,0.1406 -0.0156,0.4375 l -7.34374,0 q 0.0937,1.625 0.92187,2.4844 0.82813,0.85935 2.0625,0.85935 0.90625,0 1.55468,-0.47655 0.64845,-0.4766 1.03907,-1.5391 z m -5.48438,-2.7031 5.5,0 q -0.10937,-1.2344 -0.625,-1.8594 -0.79687,-0.9687 -2.07812,-0.9687 -1.14062,0 -1.92969,0.7734 -0.78906,0.77345 -0.86719,2.0547 z m 8.4375,2.9375 1.65626,-0.2656 q 0.14062,1 0.77343,1.5234 0.63281,0.52345 1.77344,0.52345 1.15625,0 1.71093,-0.46875 0.5547,-0.46875 0.5547,-1.09375 0,-0.5625 -0.48438,-0.89065 -0.34375,-0.2187 -1.70312,-0.5625 -1.84376,-0.4687 -2.5547,-0.80466 -0.71093,-0.33594 -1.07812,-0.9375 -0.36718,-0.60154 -0.36718,-1.32034 0,-0.6562 0.30468,-1.2187 0.30469,-0.5625 0.82032,-0.9375 0.39062,-0.2813 1.0625,-0.4844 0.67187,-0.2031 1.4375,-0.2031 1.17187,0 2.04687,0.3359 0.875,0.33595 1.28906,0.90626 0.41407,0.57034 0.57031,1.52344 l -1.625,0.21875 q -0.10937,-0.75 -0.64844,-1.17969 -0.53906,-0.42966 -1.5078,-0.42966 -1.15626,0 -1.64063,0.3828 -0.48437,0.3828 -0.48437,0.8828 0,0.3281 0.20312,0.59375 0.20312,0.26565 0.64062,0.4375 0.25,0.0937 1.46876,0.4375 1.76562,0.46875 2.46874,0.76565 0.70313,0.29685 1.10156,0.875 0.39844,0.5781 0.39844,1.4375 0,0.8281 -0.48437,1.5703 -0.48437,0.7422 -1.40625,1.1406 -0.92188,0.39845 -2.07812,0.39845 -1.92188,0 -2.9297,-0.79685 -1.0078,-0.7969 -1.28906,-2.3594 z m 10,6.71875 0,-13.64065 1.53126,0 0,1.2813 q 0.53124,-0.75 1.21093,-1.125 0.67969,-0.375 1.63281,-0.375 1.26563,0 2.23438,0.6484 0.96875,0.64845 1.46093,1.83595 0.49219,1.1875 0.49219,2.59375 0,1.5156 -0.54687,2.72656 -0.54687,1.21094 -1.57813,1.85154 -1.03124,0.64065 -2.17187,0.64065 -0.84375,0 -1.50782,-0.35155 -0.66405,-0.3516 -1.08593,-0.8828 l 0,4.79685 -1.67188,0 z m 1.51563,-8.65625 q 0,1.90625 0.77343,2.8125 0.77344,0.90625 1.8672,0.90625 1.10937,0 1.89843,-0.9375 0.78907,-0.9375 0.78907,-2.92185 0,-1.875 -0.77345,-2.8125 -0.77343,-0.9375 -1.85155,-0.9375 -1.0625,0 -1.88282,1 -0.82031,1 -0.82031,2.8906 z m 8.23437,-0.0469 q 0,-2.73435 1.53126,-4.0625 1.26562,-1.0937 3.09374,-1.0937 2.03126,0 3.32031,1.3359 1.28907,1.33595 1.28907,3.6797 0,1.90625 -0.57032,2.9922 -0.5703,1.0859 -1.65625,1.6875 -1.08593,0.60155 -2.38281,0.60155 -2.0625,0 -3.34374,-1.32815 -1.28126,-1.3281 -1.28126,-3.8125 z m 1.71876,0 q 0,1.89065 0.82812,2.82815 0.82812,0.9375 2.07812,0.9375 1.25,0 2.07031,-0.94531 0.82032,-0.94534 0.82032,-2.88284 0,-1.8281 -0.82813,-2.7656 -0.82812,-0.9375 -2.0625,-0.9375 -1.25,0 -2.07812,0.9375 -0.82812,0.9375 -0.82812,2.8281 z m 9.28124,4.9219 0,-9.8594 1.5,0 0,1.4063 q 1.09376,-1.625 3.14063,-1.625 0.89063,0 1.64063,0.3203 0.75,0.3203 1.11718,0.84374 0.36719,0.52346 0.52344,1.22656 0.0937,0.46875 0.0937,1.625 l 0,6.0625 -1.67187,0 0,-6 q 0,-1.0156 -0.19532,-1.52344 -0.19531,-0.50781 -0.69531,-0.80466 -0.5,-0.2969 -1.17187,-0.2969 -1.0625,0 -1.83595,0.6719 -0.77343,0.67185 -0.77343,2.5781 l 0,5.375 -1.67188,0 z m 9.70313,-2.9375 1.65625,-0.2656 q 0.14062,1 0.77343,1.5234 0.63282,0.52345 1.77345,0.52345 1.15624,0 1.71093,-0.46875 0.55469,-0.46875 0.55469,-1.09375 0,-0.5625 -0.48438,-0.89065 -0.34374,-0.2187 -1.70312,-0.5625 -1.84375,-0.4687 -2.55469,-0.80466 -0.71093,-0.33594 -1.07813,-0.9375 -0.36718,-0.60154 -0.36718,-1.32034 0,-0.6562 0.30468,-1.2187 0.3047,-0.5625 0.82032,-0.9375 0.39062,-0.2813 1.0625,-0.4844 0.67188,-0.2031 1.4375,-0.2031 1.17188,0 2.04688,0.3359 0.875,0.33595 1.28905,0.90626 0.41407,0.57034 0.57032,1.52344 l -1.625,0.21875 q -0.10937,-0.75 -0.64844,-1.17969 -0.53906,-0.42966 -1.50781,-0.42966 -1.15625,0 -1.64062,0.3828 -0.48438,0.3828 -0.48438,0.8828 0,0.3281 0.20312,0.59375 0.20313,0.26565 0.64063,0.4375 0.25,0.0937 1.46875,0.4375 1.76562,0.46875 2.46875,0.76565 0.70313,0.29685 1.10156,0.875 0.39844,0.5781 0.39844,1.4375 0,0.8281 -0.48437,1.5703 -0.48438,0.7422 -1.40626,1.1406 -0.92187,0.39845 -2.07812,0.39845 -1.92188,0 -2.92969,-0.79685 -1.00781,-0.7969 -1.28906,-2.3594 z m 16.75,-0.2344 1.71875,0.2188 q -0.40625,1.5 -1.50782,2.3359 -1.10156,0.83595 -2.8203,0.83595 -2.15626,0 -3.42188,-1.32815 -1.26562,-1.3281 -1.26562,-3.73435 0,-2.48435 1.27343,-3.85935 1.27344,-1.375 3.32031,-1.375 1.98438,0 3.23438,1.3437 1.25,1.3438 1.25,3.7969 0,0.1406 -0.0156,0.4375 l -7.34376,0 q 0.0938,1.625 0.92188,2.4844 0.82812,0.85935 2.0625,0.85935 0.90625,0 1.55468,-0.47655 0.64844,-0.4766 1.03907,-1.5391 z m -5.48437,-2.7031 5.5,0 q -0.10938,-1.2344 -0.625,-1.8594 -0.79688,-0.9687 -2.07813,-0.9687 -1.14063,0 -1.92969,0.7734 -0.78906,0.77345 -0.86718,2.0547 z"
     id="path86"
     style="fill:#000000;fill-rule:nonzero" />
  <path
     d="m 369.9375,530.5 0,-1.90625 1.90625,0 0,1.90625 -1.90625,0 z m 5.1875,0 0,-1.90625 1.90625,0 0,1.90625 -1.90625,0 z m 5.17188,0 0,-1.90625 1.90624,0 0,1.90625 -1.90624,0 z"
     id="path88"
     style="fill:#000000;fill-rule:nonzero" />
  <path
     d="m 327.06827,338.9219 1.64063,0.21876 q -0.26563,1.6875 -1.375,2.64844 -1.10938,0.96093 -2.73438,0.96093 -2.01562,0 -3.24219,-1.32031 -1.22656,-1.32032 -1.22656,-3.78906 0,-1.59376 0.52343,-2.78906 0.52344,-1.19532 1.60938,-1.79688 1.08594,-0.60156 2.35156,-0.60156 1.60938,0 2.625,0.8125 1.01563,0.8125 1.3125,2.3125 l -1.625,0.25 q -0.23437,-1 -0.82812,-1.5 -0.59375,-0.5 -1.42188,-0.5 -1.26562,0 -2.05468,0.90624 -0.78906,0.90626 -0.78906,2.85938 0,1.98438 0.76562,2.88282 0.76562,0.89843 1.98438,0.89843 0.98437,0 1.64062,-0.60156 0.65625,-0.60157 0.84375,-1.85157 z m 2.26563,-1.3125 q 0,-2.73437 1.53124,-4.0625 1.26563,-1.09374 3.09376,-1.09374 2.03124,0 3.3203,1.33594 1.28907,1.33593 1.28907,3.67968 0,1.90625 -0.57031,2.99219 -0.57032,1.08593 -1.65626,1.6875 -1.08593,0.60156 -2.3828,0.60156 -2.0625,0 -3.34376,-1.32813 -1.28124,-1.32812 -1.28124,-3.8125 z m 1.71874,0 q 0,1.89063 0.82813,2.82813 0.82813,0.9375 2.07813,0.9375 1.25,0 2.0703,-0.94531 0.82032,-0.94532 0.82032,-2.88282 0,-1.82812 -0.82812,-2.76562 -0.82813,-0.9375 -2.0625,-0.9375 -1.25,0 -2.07813,0.9375 -0.82813,0.9375 -0.82813,2.82812 z m 9.28126,8.70313 0,-13.64063 1.53124,0 0,1.28126 q 0.53126,-0.75 1.21094,-1.125 0.67969,-0.375 1.63282,-0.375 1.26562,0 2.23437,0.64844 0.96875,0.64843 1.46093,1.83593 0.4922,1.1875 0.4922,2.59375 0,1.51562 -0.54688,2.72656 -0.54688,1.21094 -1.57812,1.85156 -1.03126,0.64063 -2.17188,0.64063 -0.84375,0 -1.50782,-0.35156 -0.66406,-0.35157 -1.08593,-0.88281 l 0,4.79687 -1.67187,0 z m 1.51562,-8.65625 q 0,1.90625 0.77344,2.8125 0.77344,0.90625 1.86718,0.90625 1.10938,0 1.89844,-0.9375 0.78906,-0.9375 0.78906,-2.92187 0,-1.875 -0.77344,-2.8125 -0.77343,-0.9375 -1.85156,-0.9375 -1.0625,0 -1.88281,1 -0.82031,1 -0.82031,2.89062 z m 8.78125,8.67188 -0.17187,-1.5625 q 0.54687,0.14062 0.95312,0.14062 0.54688,0 0.88281,-0.1875 0.33594,-0.1875 0.55469,-0.51562 0.15625,-0.25 0.5,-1.25 0.0469,-0.14063 0.15625,-0.40626 l -3.73437,-9.875 1.79687,0 2.04687,5.71876 q 0.40626,1.07812 0.71876,2.28124 0.28124,-1.15624 0.6875,-2.25 l 2.09374,-5.75 1.67188,0 -3.75,10.03126 q -0.59375,1.625 -0.9375,2.23437 -0.4375,0.82813 -1.01562,1.21094 -0.57813,0.38281 -1.375,0.38281 -0.48438,0 -1.07813,-0.20312 z m 7.875,-0.0156 0,-1.21875 11.0625,0 0,1.21875 -11.0625,0 z m 12.3125,-3.78125 0,-8.54688 -1.48437,0 0,-1.3125 1.48437,0 0,-1.04687 q 0,-0.98437 0.17187,-1.46875 0.23438,-0.65625 0.84376,-1.05468 0.60937,-0.39844 1.70312,-0.39844 0.70312,0 1.5625,0.15624 l -0.25,1.46876 q -0.51562,-0.0938 -0.98438,-0.0938 -0.76562,0 -1.07812,0.32032 -0.3125,0.32031 -0.3125,1.21094 l 0,0.90624 1.92188,0 0,1.3125 -1.92188,0 0,8.54688 -1.65625,0 z m 4.79687,-11.6875 0,-1.90625 1.67188,0 0,1.90625 -1.67188,0 z m 0,11.6875 0,-9.85938 1.67188,0 0,9.85938 -1.67188,0 z m 4.125,0 0,-9.85938 1.5,0 0,1.40626 q 1.09376,-1.625 3.14063,-1.625 0.89063,0 1.64063,0.32031 0.75,0.32031 1.11718,0.84375 0.36719,0.52344 0.52344,1.22656 0.0937,0.46875 0.0937,1.625 l 0,6.0625 -1.67187,0 0,-6 q 0,-1.01562 -0.19532,-1.52344 -0.19531,-0.50781 -0.69531,-0.80468 -0.5,-0.29688 -1.17187,-0.29688 -1.0625,0 -1.83594,0.67188 -0.77344,0.67187 -0.77344,2.57812 l 0,5.375 -1.67188,0 z m 10.39063,-11.6875 0,-1.90625 1.67187,0 0,1.90625 -1.67187,0 z m 0,11.6875 0,-9.85938 1.67187,0 0,9.85938 -1.67187,0 z m 3.45313,-2.9375 1.65624,-0.26562 q 0.14063,1 0.77344,1.52344 0.63282,0.52343 1.77344,0.52343 1.15625,0 1.71094,-0.46875 0.55468,-0.46875 0.55468,-1.09375 0,-0.5625 -0.48437,-0.89063 -0.34375,-0.21874 -1.70313,-0.5625 -1.84374,-0.46874 -2.55468,-0.80468 -0.71094,-0.33594 -1.07813,-0.9375 -0.36719,-0.60156 -0.36719,-1.32032 0,-0.65624 0.30469,-1.21874 0.30469,-0.5625 0.82031,-0.9375 0.39063,-0.28126 1.0625,-0.48438 0.67188,-0.20312 1.4375,-0.20312 1.17188,0 2.04688,0.33594 0.875,0.33593 1.28906,0.90624 0.41406,0.57032 0.57032,1.52344 l -1.625,0.21875 q -0.10938,-0.75 -0.64844,-1.17969 -0.53906,-0.42968 -1.50782,-0.42968 -1.15624,0 -1.64062,0.38281 -0.48438,0.38281 -0.48438,0.88281 0,0.32812 0.20313,0.59375 0.20313,0.26563 0.64063,0.4375 0.25,0.0937 1.46874,0.4375 1.76563,0.46875 2.46876,0.76563 0.70312,0.29687 1.10156,0.875 0.39844,0.57812 0.39844,1.4375 0,0.82812 -0.48438,1.57031 -0.48438,0.74219 -1.40625,1.14063 -0.92187,0.39843 -2.07813,0.39843 -1.92187,0 -2.92968,-0.79687 -1.00782,-0.79688 -1.28906,-2.35938 z m 10,2.9375 0,-13.59375 1.67187,0 0,4.875 q 1.17187,-1.35937 2.95313,-1.35937 1.09374,0 1.89843,0.42968 0.80469,0.42969 1.15625,1.19532 0.35156,0.76562 0.35156,2.20312 l 0,6.25 -1.67187,0 0,-6.25 q 0,-1.25 -0.54687,-1.82031 -0.54688,-0.57031 -1.53126,-0.57031 -0.75,0 -1.39844,0.38281 -0.64843,0.38281 -0.92968,1.04687 -0.28125,0.66406 -0.28125,1.82032 l 0,5.39062 -1.67187,0 z m 17.125,-3.17188 1.71874,0.21876 q -0.40624,1.5 -1.50781,2.33594 -1.10156,0.83593 -2.82031,0.83593 -2.15625,0 -3.42188,-1.32813 -1.26562,-1.32812 -1.26562,-3.73437 0,-2.48437 1.27344,-3.85937 1.27344,-1.375 3.32031,-1.375 1.98437,0 3.23437,1.34374 1.25,1.34376 1.25,3.79688 0,0.14062 -0.0156,0.4375 l -7.34375,0 q 0.0937,1.625 0.92187,2.48438 0.82813,0.85937 2.0625,0.85937 0.90626,0 1.55469,-0.47656 0.64844,-0.47657 1.03907,-1.53907 z m -5.48438,-2.70312 5.5,0 q -0.10938,-1.23438 -0.625,-1.85938 -0.79688,-0.96874 -2.07812,-0.96874 -1.14063,0 -1.9297,0.77344 -0.78906,0.77343 -0.86718,2.05468 z m 15.5,5.875 0,-1.25 q -0.9375,1.46875 -2.75,1.46875 -1.17188,0 -2.16406,-0.64843 -0.99219,-0.64844 -1.53126,-1.8125 -0.53906,-1.16407 -0.53906,-2.6797 0,-1.46874 0.49219,-2.67187 0.49219,-1.20313 1.46875,-1.84375 0.97656,-0.64062 2.19532,-0.64062 0.89062,0 1.58593,0.375 0.69531,0.375 1.13281,0.98437 l 0,-4.875 1.65626,0 0,13.59375 -1.54688,0 z m -5.28125,-4.92188 q 0,1.89063 0.80469,2.82813 0.80468,0.9375 1.88281,0.9375 1.09375,0 1.85937,-0.89063 0.76563,-0.89062 0.76563,-2.73437 0,-2.01563 -0.78125,-2.96093 -0.78125,-0.94532 -1.92188,-0.94532 -1.10937,0 -1.85937,0.90625 -0.75,0.90625 -0.75,2.85937 z"
     id="path90"
     style="fill:#000000;fill-rule:nonzero" />
  <path
     d="m 479.92697,344.02084 -204.00003,0"
     id="path92"
     style="stroke:#073763;stroke-width:2;stroke-linecap:butt;stroke-linejoin:round" />
  <path
     d="m 275.92694,340.71738 -9.0762,3.30346 9.0762,3.30346 z"
     id="path94"
     style="fill:#073763;fill-rule:evenodd;stroke:#073763;stroke-width:2;stroke-linecap:butt" />
</svg>
